<?xml version="1.0" encoding="UTF-8" standalone="no"?>
<!-- Created with Inkscape (http://www.inkscape.org/) -->

<svg
   xmlns:dc="http://purl.org/dc/elements/1.1/"
   xmlns:cc="http://creativecommons.org/ns#"
   xmlns:rdf="http://www.w3.org/1999/02/22-rdf-syntax-ns#"
   xmlns:svg="http://www.w3.org/2000/svg"
   xmlns="http://www.w3.org/2000/svg"
   xmlns:sodipodi="http://sodipodi.sourceforge.net/DTD/sodipodi-0.dtd"
   xmlns:inkscape="http://www.inkscape.org/namespaces/inkscape"
   width="32.002506"
   height="31.665764"
   viewBox="0 0 8.46733 8.3782331"
   version="1.1"
   id="svg8"
   sodipodi:docname="favicon.svg"
   inkscape:version="0.92.0 r15299"
   inkscape:export-filename="C:\Users\chiyo\Documents\chiyoungkim.github.io\assets\img\favicon.png"
   inkscape:export-xdpi="95.992485"
   inkscape:export-ydpi="95.992485">
  <defs
     id="defs2" />
  <sodipodi:namedview
     id="base"
     pagecolor="#ffffff"
     bordercolor="#666666"
     borderopacity="1.0"
     inkscape:pageopacity="0.0"
     inkscape:pageshadow="2"
     inkscape:zoom="11.313708"
     inkscape:cx="23.279423"
     inkscape:cy="26.692493"
     inkscape:document-units="mm"
     inkscape:current-layer="layer1"
     showgrid="false"
     inkscape:lockguides="false"
     inkscape:window-width="2880"
     inkscape:window-height="1526"
     inkscape:window-x="-11"
     inkscape:window-y="-11"
     inkscape:window-maximized="1"
     showguides="true"
     fit-margin-bottom="1"
     units="px"
     fit-margin-top="0"
     fit-margin-left="0"
     fit-margin-right="0" />
  <metadata
     id="metadata5">
    <rdf:RDF>
      <cc:Work
         rdf:about="">
        <dc:format>image/svg+xml</dc:format>
        <dc:type
           rdf:resource="http://purl.org/dc/dcmitype/StillImage" />
        <dc:title></dc:title>
      </cc:Work>
    </rdf:RDF>
  </metadata>
  <g
     inkscape:label="Layer 1"
     inkscape:groupmode="layer"
     id="layer1"
     transform="translate(-100.76626,-144.44309)">
    <path
       style="fill:#ffeeaa;stroke-width:0.0373356"
       d="m 104.56469,148.14454 -2.00919,-2.00919 h -8e-5 l -0.42126,-0.42134 a 3.8805506,3.8805506 0 0 0 -0.22671,0.27338 3.8805506,3.8805506 0 0 0 -0.21789,0.32085 3.8805506,3.8805506 0 0 0 -0.18486,0.34106 3.8805506,3.8805506 0 0 0 -0.14978,0.35775 3.8805506,3.8805506 0 0 0 -0.11339,0.37102 3.8805506,3.8805506 0 0 0 -0.0758,0.38036 3.8805506,3.8805506 0 0 0 -0.0374,0.38611 z"
       id="path4019"
       inkscape:connector-curvature="0" />
    <path
       style="fill:#ffeeaa;stroke-width:0.0373356"
       d="m 108.87419,148.14454 a 3.8805506,3.8805506 0 0 0 -0.0332,-0.35476 3.8805506,3.8805506 0 0 0 -0.0729,-0.38094 3.8805506,3.8805506 0 0 0 -0.11062,-0.37182 3.8805506,3.8805506 0 0 0 -0.14708,-0.35892 3.8805506,3.8805506 0 0 0 -0.18231,-0.34244 3.8805506,3.8805506 0 0 0 -0.21548,-0.32246 3.8805506,3.8805506 0 0 0 -0.24662,-0.29941 l -0.42155,0.42156 -2.0092,2.00919 z"
       id="path4017"
       inkscape:connector-curvature="0" />
    <path
       style="fill:#ff00ff;stroke-width:0.0373356"
       d="m 108.87419,146.63923 a 4.233328,4.233328 0 0 0 -0.0449,-0.10872 4.233328,4.233328 0 0 0 -0.0183,-0.0379 4.233328,4.233328 0 0 0 -0.17916,-0.33435 4.233328,4.233328 0 0 0 -0.0241,-0.0393 4.233328,4.233328 0 0 0 -0.20906,-0.31086 4.233328,4.233328 0 0 0 -0.0314,-0.0413 4.233328,4.233328 0 0 0 -0.23429,-0.28279 4.233328,4.233328 0 0 0 -0.26697,-0.27039 l -0.24946,0.24947 -7.3e-4,7.2e-4 a 3.8805506,3.8805506 0 0 1 7.3e-4,5.9e-4 l -0.42156,0.42155 -2.195,2.195 -2.19507,-2.195 -0.42192,-0.42199 a 3.8805506,3.8805506 0 0 1 6.6e-4,-5.8e-4 l -2.9e-4,-2.9e-4 -0.24866,-0.24867 a 4.233328,4.233328 0 0 0 -0.26442,0.26566 4.233328,4.233328 0 0 0 -0.24734,0.29737 4.233328,4.233328 0 0 0 -0.0302,0.0422 4.233328,4.233328 0 0 0 -0.20433,0.30262 4.233328,4.233328 0 0 0 -0.0371,0.0648 4.233328,4.233328 0 0 0 -0.16195,0.3008 4.233328,4.233328 0 0 0 -0.0407,0.0911 4.233328,4.233328 0 0 0 -0.083,0.1998 v 1.36581 h 0.0627 a 3.8805506,3.8805506 0 0 1 0.0374,-0.38611 3.8805506,3.8805506 0 0 1 0.0758,-0.38036 3.8805506,3.8805506 0 0 1 0.11339,-0.37102 3.8805506,3.8805506 0 0 1 0.14978,-0.35775 3.8805506,3.8805506 0 0 1 0.18486,-0.34106 3.8805506,3.8805506 0 0 1 0.21788,-0.32085 3.8805506,3.8805506 0 0 1 0.22672,-0.27338 l 0.42126,0.42134 h 7e-5 l 2.0092,2.00919 h 0.87053 l 2.0092,-2.00919 0.42155,-0.42156 a 3.8805506,3.8805506 0 0 1 0.24662,0.29941 3.8805506,3.8805506 0 0 1 0.21548,0.32246 3.8805506,3.8805506 0 0 1 0.18231,0.34244 3.8805506,3.8805506 0 0 1 0.14708,0.35892 3.8805506,3.8805506 0 0 1 0.11062,0.37182 3.8805506,3.8805506 0 0 1 0.0729,0.38094 3.8805506,3.8805506 0 0 1 0.0332,0.35476 z"
       id="path4015"
       inkscape:connector-curvature="0" />
    <path
       style="stroke-width:0.03597236"
       d="m 100.76667,148.32357 a 4.233328,4.233328 0 0 0 0.0117,0.23385 4.233328,4.233328 0 0 0 0.0287,0.31568 4.233328,4.233328 0 0 0 0.0179,0.11813 4.233328,4.233328 0 0 0 0.0557,0.28913 4.233328,4.233328 0 0 0 0.0353,0.13804 4.233328,4.233328 0 0 0 0.0772,0.25836 4.233328,4.233328 0 0 0 0.058,0.1589 4.233328,4.233328 0 0 0 0.0928,0.22547 4.233328,4.233328 0 0 0 0.0842,0.17428 4.233328,4.233328 0 0 0 0.10318,0.19331 4.233328,4.233328 0 0 0 0.11412,0.18617 4.233328,4.233328 0 0 0 0.10858,0.16203 4.233328,4.233328 0 0 0 0.14621,0.19237 4.233328,4.233328 0 0 0 0.10952,0.13257 4.233328,4.233328 0 0 0 0.40165,0.39975 4.233328,4.233328 0 0 0 0.0209,0.0173 4.233328,4.233328 0 0 0 0.25362,0.20469 4.233328,4.233328 0 0 0 0.0438,0.0314 4.233328,4.233328 0 0 0 0.0906,0.0609 4.233328,4.233328 0 0 0 0.21104,0.13804 4.233328,4.233328 0 0 0 0.0426,0.0244 4.233328,4.233328 0 0 0 0.16159,0.0866 4.233328,4.233328 0 0 0 0.1624,0.0844 4.233328,4.233328 0 0 0 0.0424,0.019 4.233328,4.233328 0 0 0 0.23728,0.098 4.233328,4.233328 0 0 0 0.10311,0.0411 4.233328,4.233328 0 0 0 0.17421,0.0578 4.233328,4.233328 0 0 0 0.10851,0.0295 4.233328,4.233328 0 0 0 0.17829,0.0471 4.233328,4.233328 0 0 0 0.1314,0.0295 4.233328,4.233328 0 0 0 0.1029,0.0172 4.233328,4.233328 0 0 0 0.20068,0.0308 4.233328,4.233328 0 0 0 0.1236,0.015 4.233328,4.233328 0 0 0 0.0977,0.006 4.233328,4.233328 0 0 0 0.30211,0.0164 4.233328,4.233328 0 0 0 0.16218,-0.008 4.233328,4.233328 0 0 0 0.008,-2.8e-4 4.233328,4.233328 0 0 0 0.0468,-0.002 4.233328,4.233328 0 0 0 0.0112,-7.1e-4 4.233328,4.233328 0 0 0 0.30123,-0.026 4.233328,4.233328 0 0 0 0.0214,-0.003 4.233328,4.233328 0 0 0 0.0567,-0.009 4.233328,4.233328 0 0 0 0.0244,-0.004 4.233328,4.233328 0 0 0 0.26922,-0.0471 4.233328,4.233328 0 0 0 0.0322,-0.008 4.233328,4.233328 0 0 0 0.0526,-0.0134 4.233328,4.233328 0 0 0 0.0378,-0.0103 4.233328,4.233328 0 0 0 0.26449,-0.0718 4.233328,4.233328 0 0 0 0.006,-0.002 4.233328,4.233328 0 0 0 0.0142,-0.005 4.233328,4.233328 0 0 0 0.045,-0.0164 4.233328,4.233328 0 0 0 0.0366,-0.0142 4.233328,4.233328 0 0 0 0.31859,-0.12367 4.233328,4.233328 0 0 0 0.10136,-0.0491 4.233328,4.233328 0 0 0 0.26995,-0.13724 4.233328,4.233328 0 0 0 0.12827,-0.0787 4.233328,4.233328 0 0 0 0.22336,-0.14322 4.233328,4.233328 0 0 0 0.14898,-0.11339 4.233328,4.233328 0 0 0 0.17865,-0.14161 4.233328,4.233328 0 0 0 0.0314,-0.0271 4.233328,4.233328 0 0 0 0.45182,-0.46341 4.233328,4.233328 0 0 0 0.0476,-0.0572 4.233328,4.233328 0 0 0 0.033,-0.0395 4.233328,4.233328 0 0 0 0.21198,-0.297 4.233328,4.233328 0 0 0 0.0339,-0.0502 4.233328,4.233328 0 0 0 0.17413,-0.30386 4.233328,4.233328 0 0 0 0.0367,-0.0683 4.233328,4.233328 0 0 0 0.13607,-0.30452 4.233328,4.233328 0 0 0 0.0359,-0.0866 4.233328,4.233328 0 0 0 0.10034,-0.30255 4.233328,4.233328 0 0 0 0.0312,-0.10325 4.233328,4.233328 0 0 0 0.066,-0.29482 4.233328,4.233328 0 0 0 0.0243,-0.12368 4.233328,4.233328 0 0 0 0.0338,-0.28023 4.233328,4.233328 0 0 0 0.0171,-0.18121 4.233328,4.233328 0 0 0 0.002,-0.0287 4.233328,4.233328 0 0 0 0.007,-0.19368 4.233328,4.233328 0 0 0 -0.01,-0.19885 4.233328,4.233328 0 0 0 -0.0353,-0.38313 4.233328,4.233328 0 0 0 -0.006,-0.0371 4.233328,4.233328 0 0 0 -0.0736,-0.37882 4.233328,4.233328 0 0 0 -0.009,-0.0357 4.233328,4.233328 0 0 0 -0.11099,-0.36949 4.233328,4.233328 0 0 0 -0.013,-0.0357 4.233328,4.233328 0 0 0 -0.14643,-0.35432 4.233328,4.233328 0 0 0 -0.0183,-0.0379 4.233328,4.233328 0 0 0 -0.17916,-0.33434 4.233328,4.233328 0 0 0 -0.0241,-0.0393 4.233328,4.233328 0 0 0 -0.20906,-0.31086 4.233328,4.233328 0 0 0 -0.0314,-0.0413 4.233328,4.233328 0 0 0 -0.23429,-0.28279 4.233328,4.233328 0 0 0 -0.26697,-0.27039 l -0.24946,0.24946 -7.1e-4,7.1e-4 a 3.8805507,3.8805507 0 0 1 7.1e-4,5.6e-4 l -0.42156,0.42158 -2.195,2.19499 -2.19507,-2.19499 -0.42192,-0.422 a 3.8805507,3.8805507 0 0 1 6.5e-4,-5.6e-4 l -3e-4,-2.8e-4 -0.24866,-0.24866 a 4.233328,4.233328 0 0 0 -0.26441,0.26565 4.233328,4.233328 0 0 0 -0.24735,0.29737 4.233328,4.233328 0 0 0 -0.0302,0.0422 4.233328,4.233328 0 0 0 -0.20432,0.30262 4.233328,4.233328 0 0 0 -0.0371,0.0648 4.233328,4.233328 0 0 0 -0.16196,0.3008 4.233328,4.233328 0 0 0 -0.0407,0.0911 4.233328,4.233328 0 0 0 -0.12127,0.29198 4.233328,4.233328 0 0 0 -0.0397,0.11937 4.233328,4.233328 0 0 0 -0.084,0.27768 4.233328,4.233328 0 0 0 -0.0334,0.14869 4.233328,4.233328 0 0 0 -0.0507,0.25799 4.233328,4.233328 0 0 0 -0.0217,0.17873 4.233328,4.233328 0 0 0 -0.0236,0.25083 4.233328,4.233328 0 0 0 -0.008,0.21935 z m 0.35892,0.17377 h 3.45799 0.83291 3.45536 a 3.8805507,3.8805507 0 0 1 -3.87182,3.70679 3.8805507,3.8805507 0 0 1 -3.87444,-3.70679 z m 0.003,-0.3528 a 3.8805507,3.8805507 0 0 1 1.0058,-2.43053 l 0.42127,0.42134 h 7e-5 l 2.0092,2.00919 z m 1.34984,-2.75962 a 3.8805507,3.8805507 0 0 1 0.0451,-0.0374 3.8805507,3.8805507 0 0 0 -0.0451,0.0374 z m 0.31364,-0.24283 a 3.8805507,3.8805507 0 0 1 0.0506,-0.0341 3.8805507,3.8805507 0 0 0 -0.0506,0.0341 z m 0.32209,-0.20163 a 3.8805507,3.8805507 0 0 1 0.0715,-0.0384 3.8805507,3.8805507 0 0 0 -0.0715,0.0384 z m 0.33886,-0.16852 a 3.8805507,3.8805507 0 0 1 0.097,-0.0401 3.8805507,3.8805507 0 0 0 -0.097,0.0401 z m 0.35374,-0.13475 a 3.8805507,3.8805507 0 0 1 0.12207,-0.0368 3.8805507,3.8805507 0 0 0 -0.12207,0.0368 z m 0.36607,-0.0998 a 3.8805507,3.8805507 0 0 1 0.14635,-0.0285 3.8805507,3.8805507 0 0 0 -0.14635,0.0285 z m 0.37285,-0.0634 a 3.8805507,3.8805507 0 0 1 0.17158,-0.0159 3.8805507,3.8805507 0 0 0 -0.17158,0.0159 z m 0.45451,-0.0309 a 3.8805507,3.8805507 0 0 1 0.27156,0.0141 3.8805507,3.8805507 0 0 0 -0.27156,-0.0141 z m 0.43527,3.70147 2.00919,-2.00919 0.42156,-0.42156 a 3.8805507,3.8805507 0 0 1 1.00813,2.43075 z m 0.03,-3.66953 a 3.8805507,3.8805507 0 0 1 0.1912,0.0293 3.8805507,3.8805507 0 0 0 -0.1912,-0.0293 z m 0.38123,0.0663 a 3.8805507,3.8805507 0 0 1 0.18806,0.0483 3.8805507,3.8805507 0 0 0 -0.18806,-0.0483 z m 0.37372,0.10421 a 3.8805507,3.8805507 0 0 1 0.18107,0.0665 3.8805507,3.8805507 0 0 0 -0.18107,-0.0665 z m 0.36169,0.14117 a 3.8805507,3.8805507 0 0 1 0.17341,0.0842 3.8805507,3.8805507 0 0 0 -0.17341,-0.0842 z m 0.34411,0.17574 a 3.8805507,3.8805507 0 0 1 0.16517,0.10166 3.8805507,3.8805507 0 0 0 -0.16517,-0.10166 z m 0.32698,0.21053 a 3.8805507,3.8805507 0 0 1 0.1519,0.11587 3.8805507,3.8805507 0 0 0 -0.1519,-0.11587 z"
       id="path3684-3"
       inkscape:connector-curvature="0" />
    <path
       style="fill:#ffdd55;stroke-width:0.0373356"
       d="m 101.12559,148.49733 a 3.8805506,3.8805506 0 0 0 0.006,0.0985 3.8805506,3.8805506 0 0 0 0.0465,0.3851 3.8805506,3.8805506 0 0 0 0.0847,0.37853 3.8805506,3.8805506 0 0 0 0.12207,0.36818 3.8805506,3.8805506 0 0 0 0.15824,0.35418 3.8805506,3.8805506 0 0 0 0.1928,0.33653 3.8805506,3.8805506 0 0 0 0.22547,0.31567 3.8805506,3.8805506 0 0 0 0.25588,0.29154 3.8805506,3.8805506 0 0 0 0.28366,0.26456 3.8805506,3.8805506 0 0 0 0.30861,0.23495 3.8805506,3.8805506 0 0 0 0.33062,0.20294 3.8805506,3.8805506 0 0 0 0.34915,0.16889 3.8805506,3.8805506 0 0 0 0.36431,0.13322 3.8805506,3.8805506 0 0 0 0.37576,0.0962 3.8805506,3.8805506 0 0 0 0.38349,0.0582 3.8805506,3.8805506 0 0 0 0.38743,0.0196 3.8805506,3.8805506 0 0 0 0.096,-10e-4 3.8805506,3.8805506 0 0 0 0.38678,-0.0295 3.8805506,3.8805506 0 0 0 0.38196,-0.0679 3.8805506,3.8805506 0 0 0 0.37321,-0.10573 3.8805506,3.8805506 0 0 0 0.36074,-0.14242 3.8805506,3.8805506 0 0 0 0.34477,-0.17778 3.8805506,3.8805506 0 0 0 0.3253,-0.21125 3.8805506,3.8805506 0 0 0 0.30262,-0.24269 3.8805506,3.8805506 0 0 0 0.27681,-0.2717 3.8805506,3.8805506 0 0 0 0.24837,-0.29795 3.8805506,3.8805506 0 0 0 0.21738,-0.3213 3.8805506,3.8805506 0 0 0 0.18412,-0.34141 3.8805506,3.8805506 0 0 0 0.1492,-0.35804 3.8805506,3.8805506 0 0 0 0.11273,-0.37117 3.8805506,3.8805506 0 0 0 0.075,-0.38051 3.8805506,3.8805506 0 0 0 0.0367,-0.38619 z"
       id="path4032"
       inkscape:connector-curvature="0" />
  </g>
</svg>
