<?xml version="1.0" encoding="UTF-8" standalone="no"?>
<svg
   xmlns:dc="http://purl.org/dc/elements/1.1/"
   xmlns:cc="http://creativecommons.org/ns#"
   xmlns:rdf="http://www.w3.org/1999/02/22-rdf-syntax-ns#"
   xmlns:svg="http://www.w3.org/2000/svg"
   xmlns="http://www.w3.org/2000/svg"
   xmlns:xlink="http://www.w3.org/1999/xlink"
   xmlns:sodipodi="http://sodipodi.sourceforge.net/DTD/sodipodi-0.dtd"
   xmlns:inkscape="http://www.inkscape.org/namespaces/inkscape"
   sodipodi:docname="Chiyoung Kim New Logo.svg"
   inkscape:version="1.0 (4035a4fb49, 2020-05-01)"
   id="svg1630"
   version="1.1"
   viewBox="0 0 76.199997 76.199997"
   height="76.199997mm"
   width="76.199997mm">
  <defs
     id="defs1624">
    <clipPath
       clipPathUnits="userSpaceOnUse"
       id="clipPath1568">
      <circle
         style="opacity:0.992;fill:#3c3c3c;fill-opacity:1"
         id="circle1570"
         cx="411.26828"
         cy="302.12717"
         r="144" />
    </clipPath>
    <clipPath
       clipPathUnits="userSpaceOnUse"
       id="clipPath1501">
      <use
         height="100%"
         width="100%"
         x="0"
         y="0"
         xlink:href="#g1497"
         id="use1503" />
    </clipPath>
  </defs>
  <sodipodi:namedview
     inkscape:window-maximized="0"
     inkscape:window-y="0"
     inkscape:window-x="78"
     inkscape:window-height="1040"
     inkscape:window-width="1274"
     fit-margin-bottom="0"
     fit-margin-right="0"
     fit-margin-left="0"
     fit-margin-top="0"
     showgrid="false"
     inkscape:document-rotation="0"
     inkscape:current-layer="layer1"
     inkscape:document-units="mm"
     inkscape:cy="222.73105"
     inkscape:cx="131.12829"
     inkscape:zoom="0.98994949"
     inkscape:pageshadow="2"
     inkscape:pageopacity="0.0"
     borderopacity="1.0"
     bordercolor="#666666"
     pagecolor="#ffffff"
     id="base" />
  <metadata
     id="metadata1627">
    <rdf:RDF>
      <cc:Work
         rdf:about="">
        <dc:format>image/svg+xml</dc:format>
        <dc:type
           rdf:resource="http://purl.org/dc/dcmitype/StillImage" />
        <dc:title></dc:title>
      </cc:Work>
    </rdf:RDF>
  </metadata>
  <g
     transform="translate(-78.31667,-45.810715)"
     id="layer1"
     inkscape:groupmode="layer"
     inkscape:label="Layer 1">
    <g
       id="g1532"
       clip-path="url(#clipPath1568)"
       transform="matrix(0.26458333,0,0,0.26458333,7.6019386,3.9729029)">
      <g
         inkscape:label="Clip"
         id="g1530">
        <g
           id="g1516">
          <g
             id="g1499"
             clip-path="url(#clipPath1501)">
            <g
               inkscape:label="Clip"
               id="g1497">
              <path
                 style="stroke-width:1.16388"
                 fill="#e07a5f"
                 d="m 425.22521,158.12715 h 130.04306 v 288 H 425.22521 Z"
                 fill-rule="evenodd"
                 id="path54" />
              <path
                 fill="#3d405b"
                 d="m 363.26827,110.12715 h 96 v 96 h -96 z"
                 fill-rule="evenodd"
                 id="path52" />
              <path
                 style="stroke-width:1.08371"
                 fill="#e07a5f"
                 d="m 363.26827,206.12715 h 112.74419 v 192 H 363.26827 Z"
                 fill-rule="evenodd"
                 id="path58" />
              <path
                 fill="#3d405b"
                 d="m 267.26827,206.12715 v 0 c 0,-53.01933 42.98066,-96 96,-96 v 0 c 25.46078,0 49.87877,10.11426 67.88226,28.11775 18.00347,18.0035 28.11773,42.42146 28.11773,67.88225 v 0 c 0,53.01935 -42.98066,96 -96,96 v 0 c -53.01933,0 -96,-42.98065 -96,-96 z"
                 fill-rule="evenodd"
                 id="path62" />
              <path
                 fill="#81b29a"
                 d="m 267.26827,398.12715 v 0 c 0,-53.01935 42.98066,-96 96,-96 v 0 c 25.46078,0 49.87877,10.11426 67.88226,28.11774 18.00347,18.00351 28.11773,42.42148 28.11773,67.88226 v 0 c 0,53.01935 -42.98066,96 -96,96 v 0 c -53.01933,0 -96,-42.98065 -96,-96 z"
                 fill-rule="evenodd"
                 id="path64" />
              <path
                 fill="#81b29a"
                 d="m 363.26827,398.12715 h 96 v 96 h -96 z"
                 fill-rule="evenodd"
                 id="path60" />
              <path
                 fill="#ff5a5f"
                 d="m 267.26827,158.12715 h 96 v 288 h -96 z"
                 fill-rule="evenodd"
                 id="path66" />
              <path
                 d="m 411.10616,158.12716 a 144,144 0 0 0 -143.8379,144 144,144 0 0 0 144.00001,144 144,144 0 0 0 143.99999,-144 144,144 0 0 0 -143.99999,-144 144,144 0 0 0 -0.16211,0 z m 0.16211,12 a 132,132 0 0 1 131.99999,132 132,132 0 0 1 -131.99999,132 132,132 0 0 1 -132.00001,-132 132,132 0 0 1 132.00001,-132 z"
                 style="opacity:0.992;fill:#3c3c3c;fill-opacity:1;stroke-width:0.5"
                 id="path112" />
            </g>
          </g>
          <path
             id="path1343"
             style="fill:#f4f1de;fill-opacity:1"
             d="m 411.26825,206.12715 c -53.01933,0 -95.99999,42.98068 -96,96 0,53.01935 42.98065,96 96,96 31.93303,0 60.21924,-15.59648 77.67188,-39.58203 l -10.45898,-6.0332 c -15.32451,20.40968 -39.72565,33.61523 -67.2129,33.61523 -46.39193,0 -83.99999,-37.60806 -84,-84 0,-46.39191 37.60807,-84 84,-84 22.27815,0 43.64344,8.84848 59.39649,24.60156 2.83342,2.83342 5.44094,5.85023 7.81641,9.01954 l 10.45703,-6.03126 c -2.9405,-4.04884 -6.20408,-7.88963 -9.78711,-11.47265 -18.00348,-18.0035 -42.42207,-28.11719 -67.88282,-28.11719 z" />
        </g>
      </g>
    </g>
  </g>
</svg>
