<?xml version="1.0" encoding="UTF-8" standalone="no"?>
<!-- Created with Inkscape (http://www.inkscape.org/) -->

<svg
   xmlns:dc="http://purl.org/dc/elements/1.1/"
   xmlns:cc="http://creativecommons.org/ns#"
   xmlns:rdf="http://www.w3.org/1999/02/22-rdf-syntax-ns#"
   xmlns:svg="http://www.w3.org/2000/svg"
   xmlns="http://www.w3.org/2000/svg"
   xmlns:xlink="http://www.w3.org/1999/xlink"
   xmlns:sodipodi="http://sodipodi.sourceforge.net/DTD/sodipodi-0.dtd"
   xmlns:inkscape="http://www.inkscape.org/namespaces/inkscape"
   id="svg3180"
   version="1.1"
   inkscape:version="0.48.5 r10040"
   width="1063"
   height="959"
   sodipodi:docname="hololenssolo1.png">
  <metadata
     id="metadata3186">
    <rdf:RDF>
      <cc:Work
         rdf:about="">
        <dc:format>image/svg+xml</dc:format>
        <dc:type
           rdf:resource="http://purl.org/dc/dcmitype/StillImage" />
        <dc:title></dc:title>
      </cc:Work>
    </rdf:RDF>
  </metadata>
  <defs
     id="defs3184" />
  <sodipodi:namedview
     pagecolor="#ffffff"
     bordercolor="#666666"
     borderopacity="1"
     objecttolerance="10"
     gridtolerance="10"
     guidetolerance="10"
     inkscape:pageopacity="0"
     inkscape:pageshadow="2"
     inkscape:window-width="1920"
     inkscape:window-height="1007"
     id="namedview3182"
     showgrid="false"
     inkscape:zoom="0.49217935"
     inkscape:cx="1141.8829"
     inkscape:cy="591.76389"
     inkscape:window-x="-9"
     inkscape:window-y="-9"
     inkscape:window-maximized="1"
     inkscape:current-layer="svg3180" />
  <image
     width="1063"
     height="959"
     xlink:href="file:///C:/Users/Chiyoung/Documents/hololenssolo1.png"
     id="image3188"
     x="0"
     y="0" />
  <g
     id="g3190">
    <path
       style="fill:#fefefe"
       d="m 304.42962,956.75 c -0.38783,-1.2375 -1.71892,-4.5 -2.95797,-7.25 -1.23906,-2.75 -2.57466,-6.9601 -2.96801,-9.35577 -0.39334,-2.39567 -1.56758,-5.20817 -2.60941,-6.25 -2.07248,-2.07248 -2.40781,-3.97111 -0.96155,-5.44423 1.55198,-1.58081 -1.47209,-4.55471 -5.60754,-5.51451 -2.10382,-0.48828 -8.35084,-0.89851 -13.88225,-0.91163 C 269.78912,922.01045 260.61961,921.12433 254.5,920 c -5.98718,-1.1 -13.02517,-2 -15.63997,-2 -3.15065,0 -6.34009,-0.84323 -9.45605,-2.5 -2.58602,-1.375 -5.64734,-2.50168 -6.80292,-2.50374 -2.88141,-0.005 -8.31263,-3.46018 -8.92445,-5.67726 -0.27609,-1.00045 -0.77316,-3.43453 -1.1046,-5.40907 -0.33145,-1.97454 -1.6335,-4.55852 -2.89344,-5.74217 -2.21835,-2.08403 -12.36814,-5.48944 -19.82321,-6.651 -2.00456,-0.31232 -5.25162,-1.79386 -7.21569,-3.29231 -1.96408,-1.49845 -4.65498,-3.49034 -5.97979,-4.42642 -1.3367,-0.94448 -3.59661,-4.66922 -5.07774,-8.369 -3.09125,-7.72181 -2.84901,-12.87569 0.96222,-20.47174 1.25359,-2.49849 3.03251,-7.22349 3.95316,-10.5 0.92065,-3.27651 2.77494,-9.22517 4.12063,-13.21924 2.53587,-7.52655 3.08333,-9.86932 6.28927,-26.91409 2.15898,-11.47847 6.92186,-26.88048 11.07811,-35.82396 1.53359,-3.3 3.35163,-7.8 4.04009,-10 1.67086,-5.33928 8.73549,-19.49587 10.97878,-22 1.739,-1.94122 9.52175,-15.41205 12.99934,-22.5 0.94447,-1.925 1.9887,-4.93725 2.32052,-6.69389 0.33181,-1.75665 2.26644,-5.35665 4.29917,-8 2.03273,-2.64336 5.22194,-8.08869 7.08712,-12.10074 2.05431,-4.41884 4.26544,-7.69294 5.60867,-8.30496 1.21958,-0.55567 3.31736,-2.61558 4.66174,-4.57757 2.3352,-3.408 5.83957,-14.51546 5.96139,-18.89526 0.0882,-3.16925 5.78547,-13.02077 9.18392,-15.88037 2.55979,-2.15393 4.02387,-2.54721 9.48257,-2.54721 11.01733,0 15.97462,3.47554 17.11819,12.0015 0.43472,3.2411 0.15979,4.37079 -1.34005,5.50629 -2.44773,1.85314 -1.49896,1.85477 2.9281,0.005 1.95763,-0.81795 6.62508,-1.74072 10.37212,-2.0506 6.33878,-0.52422 7.13603,-0.35556 11.45834,2.424 7.0216,4.5154 9.79136,10.9367 9.781,22.67586 -0.0109,12.36867 -0.0234,12.34772 6.96677,11.71388 5.39967,-0.48963 5.9841,-0.32249 9.41942,2.69376 2.35348,2.06638 4.05372,4.70167 4.75694,7.37302 0.6019,2.2865 1.76367,6.40726 2.58171,9.15726 1.97914,6.65329 5.01727,30.75754 7.3734,58.5 1.366,16.08405 1.71759,17.62767 4.84505,21.27138 5.78821,6.74369 14.76955,25.84076 17.1504,36.46702 1.42537,6.36174 4.13923,10.01742 8.89767,11.98554 1.97016,0.81487 5.55083,3.57284 7.95706,6.12882 4.05249,4.3047 4.45789,4.5076 5.5,2.75275 0.61877,-1.04197 2.59307,-3.74197 4.38734,-6 1.79426,-2.25803 4.04426,-5.386 5,-6.95105 0.95573,-1.56505 2.97596,-4.44039 4.48939,-6.38964 1.51344,-1.94925 3.29262,-5.39376 3.95375,-7.65446 0.66113,-2.2607 2.00868,-5.46036 2.99457,-7.11036 0.98588,-1.65 1.7942,-3.98594 1.79625,-5.19098 0.002,-1.20504 0.45374,-2.4691 1.00374,-2.80902 0.56174,-0.34717 1,-5.12355 1,-10.8985 0,-9.93616 -0.082,-10.31781 -2.44711,-11.39545 -1.34591,-0.61324 -3.1756,-2.2268 -4.06598,-3.58569 -0.89038,-1.35889 -2.93919,-2.93098 -4.55289,-3.49352 C 412.32031,771.5643 411,770.37907 411,769.493 c 0,-0.88607 0.38897,-1.37064 0.86438,-1.07682 1.23568,0.7637 9.13562,-8.90073 9.13562,-11.17611 0,-1.04561 1.10331,-4.08044 2.45181,-6.74406 1.3485,-2.66362 2.28464,-5.11342 2.08033,-5.444 -0.37079,-0.59995 3.40532,-7.63703 8.84137,-16.47661 2.48135,-4.03494 2.93344,-5.92836 3.31266,-13.87401 0.24153,-5.06076 1.81549,-16.17639 3.49768,-24.70139 1.6822,-8.525 3.47432,-18.64428 3.98248,-22.48728 0.50816,-3.84301 1.57862,-8.29964 2.3788,-9.90364 0.80018,-1.604 1.45487,-4.84566 1.45487,-7.2037 0,-2.35804 0.38576,-4.52576 0.85725,-4.81716 0.47149,-0.29139 1.18449,-2.90545 1.58445,-5.80901 0.39996,-2.90357 0.87669,-6.17921 1.05941,-7.27921 0.18272,-1.1 0.36972,-2.29073 0.41556,-2.64606 0.0458,-0.35534 2.75475,-4.67372 6.01982,-9.59641 4.62163,-6.96794 6.38304,-10.7445 7.9526,-17.05085 2.41843,-9.71704 4.84283,-14.68814 9.12323,-18.70668 1.75751,-1.65 3.48623,-3.67513 3.84158,-4.50029 2.07601,-4.82063 17.06689,-15.91493 30.8624,-22.84034 10.15626,-5.09849 40.622,-16.42299 45.2837,-16.83253 5.18452,-0.45546 8.8208,-2.01024 11.09425,-4.7436 0.87683,-1.05422 2.67683,-1.9976 4,-2.09639 9.68467,-0.72308 38.15314,-8.50832 39.66829,-10.84804 1.25713,-1.94129 11.6152,-6.63881 14.63864,-6.63881 1.7733,0 3.75116,-0.95135 5.17747,-2.49036 1.39362,-1.50374 2.9256,-2.25337 3.86691,-1.89216 2.7595,1.05892 6.47766,-0.56833 7.99264,-3.49797 2.06281,-3.98904 0.64343,-8.34234 -4.9297,-15.11951 -2.60685,-3.17005 -5.62945,-8.46539 -7.13505,-12.5 -1.43671,-3.85 -3.69141,-8.61063 -5.01045,-10.57919 -1.31904,-1.96855 -4.81737,-10.51855 -7.77407,-19 -2.9567,-8.48144 -5.69342,-16.1992 -6.0816,-17.15057 -0.38818,-0.95137 -2.34863,-2.72879 -4.35655,-3.94982 C 588.65431,418.57266 568.12414,394.5107 559.52361,374 c -1.49906,-3.575 -3.86034,-9.17992 -5.24729,-12.45537 -1.38695,-3.27546 -2.72602,-7.77546 -2.9757,-10 -0.24969,-2.22455 -0.83046,-4.94463 -1.2906,-6.04463 -0.46014,-1.1 -1.37937,-5.6 -2.04273,-10 -0.66337,-4.4 -2.09074,-12.05 -3.17193,-17 -2.09311,-9.58284 -2.70727,-33.98829 -1.00659,-40 1.38922,-4.91074 7.19991,-8.02313 18.6401,-9.98424 2.51432,-0.43101 5.12461,-1.86924 7.25,-3.99463 1.82662,-1.82662 3.32113,-3.13076 3.32113,-2.89808 0,0.23268 1.11282,-0.30609 2.47294,-1.19727 1.52581,-0.99976 2.73026,-2.99198 3.14481,-5.20172 0.58854,-3.13722 0.32055,-3.86153 -2.16082,-5.8401 -1.55798,-1.24229 -3.08564,-2.2336 -3.39481,-2.20291 -1.81832,0.18048 -1.8287,-0.51567 -0.0512,-3.43105 2.41424,-3.95965 2.51349,-7.80988 0.34751,-13.48143 -1.4929,-3.90908 -1.4993,-4.45548 -0.0707,-6.03406 1.14094,-1.26072 1.30066,-2.21857 0.5836,-3.49988 -1.46997,-2.62669 -3.26446,-13.61716 -3.03623,-18.59565 0.10995,-2.39856 -0.48297,-7.66709 -1.31761,-11.70784 -2.03641,-9.85886 -1.91767,-14.06046 0.49303,-17.44597 1.10581,-1.55297 2.43533,-5.06333 2.95448,-7.80081 0.51915,-2.73749 3.20905,-9.63634 5.97754,-15.3308 2.7685,-5.69446 6.76605,-14.85356 8.88345,-20.35356 3.58091,-9.30149 12.26834,-23.24799 14.59391,-23.42857 0.50596,-0.0393 3.94971,-2.99643 7.65277,-6.57143 6.07218,-5.862197 8.0595,-7.005396 11.50003,-6.615351 0.59001,0.06689 2.10042,-0.972289 3.35646,-2.309283 1.25604,-1.336993 2.8773,-2.203111 3.60281,-1.924707 0.72551,0.278404 2.07683,-0.650238 3.00294,-2.063649 0.9261,-1.413411 2.11445,-2.303694 2.64077,-1.978407 0.52633,0.325287 4.08545,-2.428878 7.90917,-6.120366 4.98546,-4.813056 7.49315,-6.57034 8.86433,-6.211767 1.19509,0.312522 2.75347,-0.395549 4.15576,-1.88822 C 656.33899,69.074713 657.785,68 658.31834,68 c 0.53334,0 2.40729,-1.663038 4.16433,-3.695641 3.52307,-4.07558 4.48137,-4.233152 17.79146,-2.925397 4.64832,0.456712 7.47263,0.277445 9,-0.571256 1.22423,-0.680259 2.90087,-1.259672 3.72587,-1.287583 0.825,-0.02791 2.175,-0.486967 3,-1.020123 0.825,-0.533156 1.725,-1.013973 2,-1.068481 2.02129,-0.400648 5.81065,-2.498443 6.91354,-3.827343 C 705.64578,52.721879 707.51323,52 709.06343,52 c 1.55019,0 3.11259,-0.475792 3.47199,-1.057316 0.61399,-0.993446 33.88348,-0.419856 35.55466,0.612988 1.64095,1.014162 11.82407,1.392255 12.39998,0.460404 0.3479,-0.56291 1.3897,-0.681768 2.32063,-0.264759 1.96137,0.878594 5.25185,0.927443 6.69051,0.09932 0.54934,-0.316213 5.71617,0.0031 11.48183,0.709536 5.76567,0.706458 10.71567,1.247982 11,1.203388 0.28434,-0.0446 1.36408,0.28638 2.39944,0.735498 1.14841,0.49816 2.65667,0.33308 3.86789,-0.423344 1.28905,-0.805025 2.32725,-0.898105 2.95998,-0.265376 0.536,0.536 2.65018,0.749796 4.69818,0.475102 3.13822,-0.420923 4.1849,-0.04044 6.65756,2.420124 2.8116,2.797844 3.53846,2.974009 17.43392,4.22534 15.21379,1.370051 22.61414,3.361098 34.27749,9.222277 3.17762,1.596847 9.92762,4.285426 15,5.974618 14.94919,4.978344 18.45297,6.750178 20.62367,10.429241 1.08414,1.83748 3.46239,4.320234 5.285,5.517231 1.82261,1.196997 4.49631,3.696824 5.94154,5.55517 1.44524,1.858345 5.35364,5.557838 8.68533,8.221098 7.47472,5.97508 9.4868,8.39611 15.96288,19.20738 9.16957,15.30784 12.83722,32.35031 8.22409,38.21495 -2.33037,2.96259 -2.55108,8.13914 -0.5,11.72713 2.09991,3.6734 2.00342,26.1281 -0.15062,35.05257 -1.53725,6.36904 -1.53629,7.01322 0.0139,9.37916 2.57796,3.93446 5.90401,5.61535 13.13867,6.6399 3.66088,0.51845 7.50088,1.39471 8.53333,1.94727 2.7232,1.45741 3.95277,7.14012 3.95911,18.29782 0.005,8.77991 -0.24539,10.15293 -2.37065,13 -2.89327,3.87591 -4.39102,8.41636 -5.17341,15.68328 -2.08553,19.37055 -10.71674,43.84731 -16.45036,46.65065 -1.375,0.67228 -5.97783,2.79914 -10.22852,4.72635 -10.51274,4.76635 -12.15815,7.35822 -11.18773,17.623 0.38997,4.125 0.78884,8.4848 0.88637,9.68845 0.52093,6.42893 -1.3878,14.50743 -4.61004,19.51152 -4.95717,7.69841 -11.94715,22.81624 -12.29035,26.58138 -0.1645,1.80474 -0.58499,3.56724 -0.93441,3.91667 -0.34943,0.34942 -0.63532,1.75115 -0.63532,3.11494 0,2.1976 -7.47107,11.68704 -9.20124,11.68704 -0.32383,0 -1.51604,0.83915 -2.64935,1.86478 -1.13331,1.02563 -3.39954,1.93213 -5.03608,2.01443 -1.63654,0.0823 -3.30653,0.48066 -3.71109,0.88522 C 884.99767,423.66899 883.39167,424 881.83333,424 880.22102,424 879,424.54311 879,425.26027 c 0,1.36584 -6.38679,16.45985 -7.38864,17.4617 -0.33625,0.33625 -0.61136,2.03984 -0.61136,3.78577 0,1.74592 -0.67013,5.38342 -1.48918,8.08333 -1.92572,6.34797 -1.89049,9.40321 0.16882,14.63869 1.5828,4.02403 2.92896,5.97638 12.01761,17.42926 2.03349,2.56246 3.75532,5.44713 3.82628,6.41039 0.15599,2.11728 3.22321,6.98812 4.24539,6.7418 2.46847,-0.59484 14.77376,14.48574 21.31139,26.11789 2.28677,4.06876 6.20136,7.0709 9.21999,7.0709 0.76979,0 3.32638,1.39574 5.68132,3.10164 3.90453,2.82843 19.8425,10.79396 31.01838,15.50247 12.46364,5.25105 36.90403,19.04381 42.15025,23.7872 8.75865,7.91915 16.05395,12.5917 32.84975,21.03985 8.525,4.288 16.2875,8.48992 17.25,9.33759 0.9625,0.84767 1.75,1.22009 1.75,0.8276 0,-0.3925 2.7,0.72545 6,2.48433 l 6,3.19797 0,173.36068 0,173.36067 -378.93261,0 -378.93261,0 -0.70516,-2.25 z"
       id="path3194"
       inkscape:connector-curvature="0" />
    <path
       style="fill:#000000"
       d="m 304.42962,956.75 c -0.38783,-1.2375 -1.71892,-4.5 -2.95797,-7.25 -1.23906,-2.75 -2.57466,-6.9601 -2.96801,-9.35577 -0.39334,-2.39567 -1.56758,-5.20817 -2.60941,-6.25 -2.07248,-2.07248 -2.40781,-3.97111 -0.96155,-5.44423 1.55198,-1.58081 -1.47209,-4.55471 -5.60754,-5.51451 -2.10382,-0.48828 -8.32514,-0.8976 -13.82514,-0.9096 -5.5,-0.012 -13.93819,-0.74461 -18.75152,-1.62803 l -8.75153,-1.6062 3.18752,-4.02457 c 5.68065,-7.17241 9.60947,-7.71552 19.46511,-2.69083 4.96075,2.52914 8.84761,2.42804 22.15649,-0.57626 6.09117,-1.375 11.27765,-2.5 11.52551,-2.5 0.24786,0 2.63715,-1.80871 5.30954,-4.01935 2.67238,-2.21064 8.99227,-6.03151 14.0442,-8.49083 5.05192,-2.45931 9.44944,-4.89886 9.77228,-5.42121 0.33059,-0.53491 2.85168,0.22545 5.77198,1.74083 4.23378,2.19695 6.63031,2.71532 13.06304,2.82554 l 7.87802,0.13498 0.16468,6.18739 c 0.15696,5.89745 0.36201,6.37142 4.37596,10.11501 3.62148,3.37757 4.84845,3.92764 8.7609,3.92764 5.79363,0 11.69451,-2.8207 18.02782,-8.61754 4.68683,-4.28983 5.27753,-4.5455 9.43091,-4.08191 8.41739,0.93951 11.40229,-1.77217 14.64059,-13.30055 1.88874,-6.72393 1.2584,-23.6085 -1.04532,-28 -3.50197,-6.67571 -7.27326,-11.08589 -13.31654,-15.57249 -1.25311,-0.93032 -1.2321,-1.4834 0.15855,-4.17261 0.88172,-1.70507 3.40959,-5.18732 5.61747,-7.73833 2.20789,-2.55102 4.01434,-4.99896 4.01434,-5.43988 0,-0.44093 1.35076,-2.50139 3.00169,-4.57882 1.65094,-2.07743 3.54262,-5.62681 4.20375,-7.88751 0.66113,-2.2607 2.00868,-5.46036 2.99457,-7.11036 0.98588,-1.65 1.7942,-3.98594 1.79625,-5.19098 0.002,-1.20504 0.45374,-2.4691 1.00374,-2.80902 1.39848,-0.86431 1.32322,-21.5 -0.0784,-21.5 -0.59313,0 -2.86052,-1.8 -5.03864,-4 -2.17812,-2.2 -4.61784,-4 -5.42158,-4 -1.25318,0 -1.24247,-0.2493 0.0752,-1.75 0.84508,-0.9625 2.70805,-3.23979 4.13992,-5.06065 1.43188,-1.82086 4.45295,-4.1336 6.71349,-5.13943 7.48014,-3.3283 12.61584,-5.04862 15.38031,-5.15201 2.64445,-0.0989 2.62536,-0.13548 -0.6111,-1.17072 -2.97667,-0.95213 -3.27917,-1.37704 -2.775,-3.89791 0.60593,-3.02962 -0.9296,-4.00746 -1.69481,-1.07928 -0.4123,1.57771 -0.46875,1.58352 -0.57333,0.059 -0.0638,-0.93004 0.334,-1.9691 0.884,-2.30902 1.19642,-0.73943 1.35263,-5.5 0.18047,-5.5 -0.45075,0 -1.46325,1.4625 -2.25,3.25 -1.16452,2.64576 -2.08119,3.30974 -4.93047,3.5713 -2.8221,0.25906 -3.25789,0.0751 -2.25,-0.95 1.53083,-1.55691 1.65637,-3.24048 0.17329,-2.32389 -0.59219,0.36599 0.35467,-2.08485 2.10412,-5.44632 1.74945,-3.36146 3.6535,-6.40388 4.23122,-6.76093 0.64799,-0.40048 0.77124,-0.11112 0.32172,0.75533 -0.40077,0.77248 -0.0356,0.50451 0.81139,-0.59549 0.84702,-1.1 2.00055,-2.53832 2.56339,-3.19627 0.56283,-0.65795 0.75504,-1.89545 0.42712,-2.75 -0.32793,-0.85455 -0.0981,-1.55373 0.51076,-1.55373 0.60885,0 1.10699,0.675 1.10699,1.5 0,0.825 0.45,1.5 1,1.5 1.32622,0 1.2804,-1.70867 -0.0682,-2.54213 -0.5875,-0.3631 -0.82662,-1.28965 -0.53139,-2.05902 0.29524,-0.76937 0.1271,-1.39885 -0.37364,-1.39885 -1.20549,0 -0.37429,-11.98168 1.71225,-24.68175 0.96969,-5.90214 2.07799,-9.93132 2.63681,-9.58595 0.55364,0.34216 0.69185,-0.11347 0.32467,-1.07033 -0.35164,-0.91636 -0.19242,-3.80268 0.35382,-6.41404 0.54625,-2.61136 1.45753,-8.12293 2.02507,-12.24793 0.56754,-4.125 1.68185,-8.80664 2.47624,-10.40364 0.79438,-1.597 1.44434,-4.6406 1.44434,-6.76357 0,-2.12296 0.42694,-4.64132 0.94876,-5.59636 0.52182,-0.95504 1.29831,-3.98643 1.72554,-6.73643 l 0.77679,-5 0.33306,4.27279 c 0.37755,4.84335 2.15386,4.78109 2.33416,-0.0818 L 455.23663,634.5 456,637.5 c 0.41985,1.65 0.81661,2.18594 0.88169,1.19098 0.0651,-0.99496 0.52424,-1.55813 1.02038,-1.2515 0.49614,0.30663 0.73251,4.22182 0.52526,8.70042 -0.20725,4.47861 -0.13485,7.90096 0.16088,7.60523 0.74898,-0.74898 3.37432,-15.63581 4.45206,-25.24513 0.49348,-4.4 1.06,-9.35 1.25893,-11 0.19892,-1.65 0.90382,-4.0125 1.56642,-5.25 0.66261,-1.2375 0.79916,-2.25 0.30344,-2.25 -1.29587,0 1.53185,-11.5739 4.33701,-17.75148 2.16127,-4.75958 6.51155,-8.80385 9.99393,-9.29093 2.31084,-0.32322 6.34637,-3.4275 7.92099,-6.09313 1.67056,-2.82802 3.57901,-3.81708 3.57901,-1.85484 0,0.5553 2.21683,-0.14952 4.92629,-1.56626 2.70946,-1.41674 6.64209,-2.7887 8.73918,-3.0488 2.09709,-0.26011 4.24526,-0.90529 4.77371,-1.43374 0.52845,-0.52845 1.96926,-0.96082 3.2018,-0.96082 1.23254,0 2.48318,-0.39188 2.77919,-0.87084 0.29602,-0.47896 1.88847,-1.14089 3.53878,-1.47095 2.03658,-0.40732 2.82691,-1.05267 2.46002,-2.00877 -0.30844,-0.80378 0.65613,-2.34995 2.24632,-3.6008 2.89332,-2.27589 4.55244,-1.22085 2.31663,1.47315 -0.9713,1.17034 -0.85494,1.58971 0.59549,2.14629 1.02661,0.39395 1.96267,0.21169 2.17435,-0.42337 0.76507,-2.29521 6.01206,-7.50871 6.96451,-6.92006 0.97266,0.60113 7.28373,-7.26427 7.28373,-9.07761 0,-1.31749 4.60502,-3.24427 7.79705,-3.26235 1.9361,-0.011 2.31054,-0.26384 1.31981,-0.8913 -1.0126,-0.64132 -0.51032,-1.0677 1.87492,-1.59158 2.29149,-0.5033 3.51313,-0.31304 4.11783,0.6413 0.63257,0.99833 0.86381,1.02657 0.87508,0.10689 0.01,-0.81255 1.59014,-1.25 4.51531,-1.25 2.92517,0 4.50536,-0.43745 4.51531,-1.25 0.0115,-0.93649 0.20324,-0.95452 0.7646,-0.0719 0.4121,0.64797 1.41771,1.09797 2.23468,1 2.39078,-0.28669 2.70282,1.79091 0.31996,2.13035 -2.53876,0.36165 -3.88057,3.05464 -2.29635,4.60875 0.79582,0.78069 1.61692,0.45504 2.94308,-1.16722 1.01162,-1.2375 2.35355,-2.25 2.98207,-2.25 0.62852,0 2.79834,-1.125 4.82184,-2.5 2.02349,-1.375 4.02462,-2.5 4.44694,-2.5 0.42233,0 1.62518,-0.7875 2.673,-1.75 6.08533,-5.58982 26.50251,-17.09048 33.35432,-18.78794 1.5177,-0.37599 3.00675,-1.08377 3.30902,-1.57284 0.30226,-0.48907 1.3573,-0.88922 2.34452,-0.88922 0.98723,0 2.88398,-1.0125 4.21499,-2.25 1.3614,-1.26575 3.37121,-2.11317 4.59444,-1.93721 1.19592,0.17204 3.21012,-0.25756 4.476,-0.95466 1.26587,-0.6971 3.31408,-1.41575 4.55158,-1.597 3.58056,-0.52443 2.75883,2.37907 -2.25,7.95009 -2.475,2.7528 -4.54783,5.96892 -4.6063,7.14693 -0.0585,1.17802 -0.17277,3.04185 -0.25402,4.14185 -0.0812,1.1 0.24856,2.86438 0.73291,3.92083 0.61504,1.34153 0.43908,2.24631 -0.58342,3 -0.80523,0.59355 -1.4622,1.85145 -1.45995,2.79536 0.003,1.3612 0.5311,1.15436 2.55187,-1 1.40127,-1.49391 2.60773,-3.16619 2.68102,-3.71619 0.36084,-2.7078 0.5978,-2.87318 1.81678,-1.26799 1.20229,1.58322 1.60764,1.37403 4.7182,-2.43486 1.8716,-2.29178 3.90128,-5.04448 4.5104,-6.11711 0.75889,-1.33639 1.33362,-1.58434 1.82594,-0.78775 0.70254,1.13673 -0.17863,3.33632 -7.05732,17.61657 -1.85686,3.85487 -3.37611,7.31097 -3.37611,7.68023 0,0.36925 -1.37321,3.74027 -3.05158,7.49114 -1.67837,3.75087 -3.97623,9.06977 -5.10636,11.81977 -1.13012,2.75 -2.89211,6.89408 -3.91553,9.20906 C 629.91636,581.25609 621,607.26456 621,608.58107 c 0,0.44066 0.60263,-0.0229 1.33917,-1.03024 1.20112,-1.64262 1.4034,-1.66406 1.96215,-0.20799 0.95909,2.49936 3.69868,0.83293 3.69868,-2.24983 0,-1.48115 0.37175,-3.12051 0.82612,-3.64301 0.94313,-1.08456 2.16664,-5.33205 5.02653,-17.45 3.0482,-12.91586 8.5966,-28 10.29922,-28 0.46647,0 0.84813,-0.86353 0.84813,-1.91896 0,-1.05543 0.6432,-3.19293 1.42934,-4.75 2.07479,-4.10946 7.18745,-17.35743 7.97669,-20.66929 0.55971,-2.34871 0.92799,-2.62943 2.13517,-1.62756 0.80234,0.66589 1.4588,1.62382 1.4588,2.12875 0,0.50492 0.8338,2.13732 1.85289,3.62755 1.01909,1.49023 3.96901,5.85951 6.55538,9.70951 2.58637,3.85 7.09832,10.07473 10.02654,13.83272 3.53265,4.53371 5.49059,8.07443 5.81902,10.52308 0.53261,3.97091 6.42115,17.42856 7.86602,17.97696 0.48219,0.18302 0.61901,1.35953 0.30404,2.61446 -0.3867,1.54072 -0.0614,2.47791 1.00172,2.88586 0.86591,0.33228 1.57439,1.51827 1.57439,2.63554 0,1.11726 0.3776,2.03138 0.83912,2.03138 0.46151,0 1.69901,1.79484 2.75,3.98853 1.05098,2.19369 2.47338,3.99369 3.16088,4 0.6875,0.006 1.25,0.63137 1.25,1.38903 0,0.75765 0.70629,1.96372 1.56952,2.68014 0.86324,0.71642 1.34817,2.14905 1.07763,3.18361 -0.2819,1.07797 0.11534,2.11406 0.93047,2.42685 0.78231,0.3002 1.42238,1.56772 1.42238,2.8167 0,2.68046 2.70326,9.51515 3.76342,9.51511 0.92674,-4e-5 0.8955,19.67444 -0.0327,20.60266 -0.37599,0.37599 -0.96736,-0.0558 -1.31415,-0.9595 C 708.06976,643.73941 707.10909,643 706.28172,643 c -1.19517,0 -1.36151,0.77063 -0.80945,3.75 0.38217,2.0625 1.10725,3.9 1.61129,4.08333 0.50404,0.18334 0.91644,1.21445 0.91644,2.29136 0,3.16882 4.3262,11.67338 6.55519,12.88636 1.13036,0.61511 2.55377,2.43927 3.16314,4.05367 0.60937,1.6144 1.82203,2.93528 2.69481,2.93528 0.87277,0 1.58686,0.69322 1.58686,1.54049 0,2.15159 4.08941,7.45951 5.74708,7.45951 0.79208,0 1.06565,0.49399 0.64789,1.16994 -0.49963,0.80841 -0.1563,0.95245 1.11104,0.46613 1.08879,-0.41781 2.20229,-0.1821 2.74017,0.58006 0.71805,1.01744 1.01134,1.02447 1.41328,0.0339 0.78295,-1.92957 2.34054,-1.478 2.34054,0.67857 0,1.06072 0.57051,2.52322 1.26779,3.25 0.69729,0.72679 1.77339,2.44643 2.39135,3.82143 l 1.12355,2.5 1.1104,-2.81969 c 0.98645,-2.50492 1.27764,-2.65243 2.60865,-1.32142 0.82404,0.82404 1.49826,1.91065 1.49826,2.41469 0,0.50405 0.90775,1.73795 2.01723,2.74201 1.96646,1.77963 2.0939,1.75212 5.06331,-1.09276 2.02977,-1.94463 3.8583,-2.81189 5.48043,-2.59932 1.89226,0.24797 2.67447,-0.30924 3.51267,-2.50225 0.59308,-1.55169 1.1418,-3.63399 1.21937,-4.62733 0.0776,-0.99334 1.61838,-2.50711 3.42402,-3.36394 C 768.52266,680.47316 770,679.14839 770,678.38606 770,677.62373 770.58529,677 771.30064,677 c 3.04154,0 6.684,-2.56821 6.69156,-4.71806 0.004,-1.24798 0.99186,-2.77873 2.2578,-3.5 1.2375,-0.70507 2.2875,-2.06944 2.33333,-3.03194 0.2788,-5.85476 0.53301,-6.75 1.91667,-6.75 1.79651,0 1.91644,-1.36031 0.34218,-3.8811 -1.29325,-2.07083 -0.4168,-5.59207 1.15076,-4.62327 0.59065,0.36505 1.00706,-0.61882 1.00706,-2.37945 0,-1.65102 0.88662,-4.50457 1.97027,-6.34121 1.44425,-2.44784 1.91146,-4.86607 1.75,-9.05792 -0.18734,-4.86373 0.0413,-5.71845 1.52973,-5.7178 0.99989,4.3e-4 1.75044,-0.74936 1.75104,-1.74925 5.6e-4,-0.9625 2.27326,-4.11875 5.05042,-7.0139 2.77717,-2.89514 4.77514,-5.70764 4.43995,-6.25 -0.35696,-0.57758 0.86498,-0.9861 2.94957,-0.9861 l 3.55902,0 0,-5 0,-5 4,0 c 3.33333,0 4,-0.33333 4,-2 0,-2.38584 3.48467,-2.78531 4.36163,-0.5 0.75079,1.95653 3.63837,1.94576 3.63837,-0.0136 0,-3.56549 4.17241,-8.39934 7.29775,-8.45463 0.98876,-0.0175 2.84036,-1.1568 4.11467,-2.5318 1.27431,-1.375 2.82782,-2.5 3.45225,-2.5 0.62443,0 1.17086,-1.4625 1.21428,-3.25 0.0434,-1.7875 0.30592,-2.6875 0.58333,-2 0.77432,1.91897 2.81998,1.49448 5.45136,-1.13121 1.3125,-1.30966 3.28119,-2.55233 4.37488,-2.76148 1.09368,-0.20915 2.12797,-1.10443 2.29842,-1.9895 0.17045,-0.88507 2.72715,-4.16546 5.68155,-7.28976 3.26143,-3.44898 6.9414,-8.90135 9.36756,-13.87929 C 873.5012,545.17866 877,532.49311 877,526.72453 877,524.2546 874.95295,516.31282 870.62707,502 c -1.59525,-5.27811 -2.82538,-12.38522 -3.24533,-18.75 -0.60211,-9.12546 -0.49558,-10.25 0.97098,-10.25 0.906,0 1.64728,0.36971 1.64728,0.82157 0,0.45187 2.52228,3.93937 5.60507,7.75 3.08279,3.81064 7.08341,10.07843 8.89026,13.92843 4.31384,9.19185 9.09865,18.97353 11.85758,24.24069 l 2.22127,4.24069 2.26405,-2.24069 c 1.99284,-1.97227 2.17724,-2.01025 1.53931,-0.31708 -0.56845,1.50874 -0.37479,1.78931 0.89792,1.30093 1.14228,-0.43834 1.45806,-0.19368 1.06662,0.82639 -0.31924,0.83193 0.0288,1.44907 0.8173,1.44907 1.25432,0 7.26512,8.82896 9.11036,13.38174 2.06739,5.10093 4.04444,8.61826 4.8442,8.61826 1.29839,0 1.08227,-6.40379 -0.26147,-7.74753 -1.58466,-1.58466 7.22106,2.71257 9.44331,4.60838 0.98768,0.84259 3.55954,5.24439 5.71525,9.78179 2.15571,4.53739 4.81491,8.72902 5.90933,9.31474 1.20978,0.64745 4.6536,0.82011 8.78474,0.44044 9.6854,-0.89015 14.09518,0.597 21.15689,7.13489 3.24793,3.00701 6.18318,5.46729 6.52278,5.46729 0.3396,0 2.36429,1.8 4.49932,4 C 984.49252,583.71824 988,585.23202 988,583.07112 988,581.41297 972.81819,566 971.1849,566 c -1.11234,0 -1.27013,-0.31477 -0.5292,-1.0557 0.74093,-0.74093 3.40947,0.19315 8.95,3.13281 4.34186,2.30367 8.5693,4.75338 9.3943,5.44379 0.825,0.69041 3.5449,2.17472 6.04423,3.29845 2.49932,1.12374 5.15887,3.19164 5.91007,4.59533 0.7513,1.4037 2.1632,2.80522 3.1376,3.11449 2.2556,0.71591 7.239,9.12643 6.304,10.63934 -0.4358,0.705 -0.2604,0.86577 0.4592,0.42101 0.6403,-0.39572 2.3456,0.20975 3.7894,1.3455 1.4439,1.13574 3.1914,2.06498 3.8834,2.06498 1.1725,0 2.6876,2.31753 2.8857,4.41404 0.1716,1.81627 7.1461,4.86202 10.8364,4.73224 3.8198,-0.13434 5.1768,1.33422 2,2.16439 -1.1421,0.29846 -0.8481,0.49762 0.8464,0.57333 3.5839,0.16012 8.4147,2.72148 10.1649,5.38957 0.9355,1.42602 3.8473,2.94544 8.0995,4.22643 3.6514,1.1 6.639,2.51436 6.6391,3.14301 0,0.62866 0.6699,1.40004 1.4885,1.71418 1.3096,0.50252 1.4905,20.58424 1.5057,167.10983 l 0.017,166.53868 -321.25568,-0.006 -321.25572,-0.006 0.32474,-7.95168 c 0.42883,-10.50049 -0.91302,-13.11683 -3.29607,-6.42667 -0.95712,2.687 -2.51357,6.91046 -3.45878,9.38546 l -1.71857,4.5 -50.80867,0.25924 c -47.49484,0.24233 -50.89574,0.1445 -52.14385,-1.5 -1.26824,-1.67102 -1.33679,-1.67148 -1.367,-0.009 -0.046,2.53043 -2.77098,2.15218 -3.60218,-0.5 z m 2.73656,-9.52794 c -0.52463,-0.17488 -0.72415,-1.19638 -0.44339,-2.27001 0.28076,-1.07363 0.0581,-1.95205 -0.49487,-1.95205 -0.55293,0 -1.29651,-1.4625 -1.6524,-3.25 -0.77911,-3.9133 -5.56269,-10.30463 -5.57055,-7.44282 -0.009,3.19758 2.11232,11.06107 4.27536,15.84982 l 2.10353,4.65701 1.36809,-2.637 c 0.78257,-1.50841 0.95985,-2.77308 0.41423,-2.95495 z m 128.48976,-44.49109 c -0.27393,-0.67703 -0.48137,0.11903 -0.46099,1.76903 0.0204,1.65 0.2445,2.20394 0.49804,1.23097 0.25354,-0.97297 0.23687,-2.32297 -0.0371,-3 z M 437,899.83333 C 437,899.375 436.325,899 435.5,899 c -0.96598,0 -1.50545,-0.97903 -1.51531,-2.75 -0.0111,-1.99937 -0.2586,-2.3657 -0.90661,-1.34209 -1.13353,1.79054 0.59364,5.75876 2.5065,5.75876 0.77848,0 1.41542,-0.375 1.41542,-0.83334 z m 1.86895,-8.17002 c 0.53612,-2.83982 1.24685,-6.73831 1.5794,-8.66331 0.33255,-1.925 0.0991,-7.85396 -0.51874,-13.17546 -0.75822,-6.53044 -0.80624,-11.16243 -0.14772,-14.25 0.53661,-2.516 0.63029,-4.57454 0.20817,-4.57454 -0.42211,0 -1.07585,1.6875 -1.45275,3.75 -0.37689,2.0625 -1.32197,4.73903 -2.10017,5.94785 -0.88215,1.37029 -1.04256,2.42798 -0.42602,2.80902 1.75654,1.08561 1.12273,3.47342 -0.76112,2.86741 -1.35681,-0.43646 -1.43991,-0.34191 -0.36988,0.42083 1.5343,1.09366 0.78487,9.67587 -0.9379,10.7406 C 433.424,877.85599 433,879.01803 433,880.11803 c 0,1.1 0.45,1.72189 1,1.38197 0.63681,-0.39357 1,2.47915 1,7.9096 0,7.03072 0.25402,8.43015 1.4471,7.97233 0.79631,-0.30558 1.88546,-2.87735 2.42185,-5.71862 z M 430,745.94098 c 0,-0.58246 -0.45,-0.7809 -1,-0.44098 -0.55,0.33992 -1,0.81648 -1,1.05902 0,0.24254 0.45,0.44098 1,0.44098 0.55,0 1,-0.47656 1,-1.05902 z m 0,-6.32324 c 0,-0.55 -0.66069,-0.12649 -1.4682,0.94113 -0.8075,1.06762 -1.46819,2.39113 -1.46819,2.94113 0,0.55 0.66069,0.12649 1.46819,-0.94113 0.80751,-1.06762 1.4682,-2.39113 1.4682,-2.94113 z m 3.49254,-0.48605 c 0.50974,-1.68292 0.35598,-2.24786 -0.53129,-1.95211 -0.68675,0.22892 -1.38535,1.69854 -1.55245,3.26582 -0.3387,3.1768 0.97436,2.34896 2.08374,-1.31371 z m 2.11163,-2.86086 c -0.33229,-0.33229 -0.56864,0.25834 -0.52522,1.3125 0.048,1.16495 0.28494,1.4019 0.60416,0.60417 0.28887,-0.72187 0.25335,-1.58438 -0.0789,-1.91667 z m 5,-36 c -0.33229,-0.33229 -0.56864,0.25834 -0.52522,1.3125 0.048,1.16495 0.28494,1.4019 0.60416,0.60417 0.28887,-0.72187 0.25335,-1.58438 -0.0789,-1.91667 z m 175.90567,-60.28675 c 0.26327,-0.42598 -0.27027,-1.0619 -1.18563,-1.41316 -1.4856,-0.57008 -3.26777,0.82244 -3.3089,2.58546 -0.0199,0.85316 3.86974,-0.16137 4.49453,-1.1723 z M 617.95675,635 c 0.44555,0 1.02515,-1.125 1.288,-2.5 0.57751,-3.02104 -0.78412,-3.36946 -1.56081,-0.39938 -0.30213,1.15533 -0.99852,1.82299 -1.54753,1.48368 -1.60789,-0.99373 -2.36067,1.25805 -0.93763,2.80469 1.11235,1.20897 1.34815,1.2108 1.62454,0.0126 C 617.00115,635.63073 617.51119,635 617.95675,635 z m 0.78124,-14 c 0.31874,-0.825 0.50809,-1.8375 0.42077,-2.25 C 619.07144,618.3375 619.45,618 620,618 c 0.55,0 1,0.45 1,1 0,0.55 0.36202,1 0.80449,1 0.44247,0 0.91543,-1.88012 1.05102,-4.17803 0.13558,-2.29792 0.51458,-4.66042 0.84221,-5.25 0.3998,-0.71947 0.25053,-0.74313 -0.45395,-0.072 -0.5773,0.55 -1.26612,1.9 -1.5307,3 -0.34112,1.41819 -0.52431,1.12729 -0.62971,-1 -0.12961,-2.61565 -0.39652,-2.29536 -2.08336,2.5 -1.06409,3.025 -1.91387,6.625 -1.88841,8 0.0256,1.38081 0.27027,1.82848 0.54659,1 0.27515,-0.825 0.76106,-2.175 1.07981,-3 z m 6.86618,-9.72917 c -0.33229,-0.33229 -0.56864,0.25834 -0.52522,1.3125 0.048,1.16495 0.28494,1.4019 0.60416,0.60417 0.28887,-0.72187 0.25335,-1.58438 -0.0789,-1.91667 z M 486,601.88197 c 0,-0.55 -0.45,-0.72189 -1,-0.38197 -0.55,0.33992 -1,1.06803 -1,1.61803 0,0.55 0.45,0.72189 1,0.38197 0.55,-0.33992 1,-1.06803 1,-1.61803 z m 4.92105,-5.16715 c -0.0524,-1.47068 -0.26425,-1.71085 -0.63049,-0.71482 -0.30334,0.825 -1.28032,2.35298 -2.17105,3.39551 -1.54199,1.80478 -1.51181,1.83899 0.63049,0.71482 1.35521,-0.71116 2.2186,-2.06149 2.17105,-3.39551 z m -3.93309,-8.69231 c 0.84894,-1.58627 0.77228,-1.86774 -0.3875,-1.42269 -1.68224,0.64554 -2.98192,3.40018 -1.60426,3.40018 0.51339,0 1.40968,-0.88987 1.99176,-1.97749 z M 502.25,576.55986 c 2.6125,-1.47138 4.75,-2.838 4.75,-3.03694 0,-1.19104 -7.87762,2.04939 -9.7347,4.00433 -3.22516,3.39511 -6.55409,10.19646 -5.68163,11.60813 0.47062,0.76148 1.70396,-0.84716 3.33178,-4.34563 2.06869,-4.44597 3.53263,-6.08862 7.33455,-8.22989 z M 549.26992,554.25 c 0.27674,-0.9625 0.82737,-2.5375 1.22362,-3.5 0.47834,-1.16192 0.26443,-1.74738 -0.63655,-1.7422 -1.52849,0.009 -4.08819,4.80909 -3.27018,6.13267 0.8685,1.40525 2.14481,0.98168 2.68311,-0.89047 z M 922,549 c 0,-0.55 -0.45,-1 -1,-1 -0.55,0 -1,0.45 -1,1 0,0.55 0.45,1 1,1 0.55,0 1,-0.45 1,-1 z m -286,-4.04797 c 0,-1.80546 -1.80183,-1.81783 -2.27312,-0.0156 -0.35042,1.33999 -0.0846,1.75435 0.8863,1.38176 C 635.37593,546.0255 636,545.41073 636,544.95203 z M 388.37935,873.15329 c -3.36636,-0.90931 -6.92122,-2.3268 -7.8997,-3.14997 -1.03878,-0.87391 -4.10937,-1.5725 -7.37935,-1.67887 C 361.73671,867.95479 350,857.43777 350,847.62476 c 0,-1.9287 -0.41196,-3.76133 -0.91547,-4.07252 -0.50351,-0.31118 -1.87052,-3.52199 -3.03781,-7.13513 -1.69098,-5.23415 -2.0056,-8.0274 -1.54799,-13.74323 0.31589,-3.94563 0.98706,-8.52388 1.49149,-10.17388 0.50443,-1.65 1.09165,-4.35 1.30494,-6 0.21328,-1.65 0.74481,-3.82019 1.18117,-4.82264 1.0454,-2.40157 -0.0607,-12.62936 -1.82155,-16.84273 -2.75592,-6.59455 -3.90141,-10.42448 -4.73594,-15.83463 -0.46661,-3.025 -0.97295,-6.175 -1.12519,-7 -0.53749,-2.9127 1.25584,-24.61837 2.78413,-33.69802 1.81408,-10.77745 1.57697,-11.54361 -5.70325,-18.42875 -5.79842,-5.48377 -9.54094,-6.54244 -14.52236,-4.10803 -4.39646,2.14855 -7.40792,7.66434 -10.5016,19.2348 -2.21904,8.29928 -2.87894,19.92917 -2.09942,37 0.51842,11.35292 -0.366,39.56585 -1.2854,41.0044 -1.2231,1.91374 -2.41744,13.22995 -3.0075,28.4956 -0.25511,6.6 -0.9568,13.60324 -1.5593,15.56275 -0.60251,1.95951 -0.93876,6.3473 -0.74721,9.75064 l 0.34826,6.1879 -2.83376,-3.03604 c -2.69665,-2.88913 -2.80391,-3.36092 -2.21674,-9.75064 0.33936,-3.69304 0.93955,-24.48961 1.33376,-46.21461 0.48898,-26.94823 1.08557,-40.13553 1.87745,-41.5 0.63839,-1.1 1.85264,-6.275 2.69832,-11.5 0.84569,-5.225 1.99127,-11.525 2.54574,-14 1.58169,-7.06023 1.30368,-23.76466 -0.49098,-29.5 -0.8605,-2.75 -1.95479,-7.25 -2.43174,-10 -2.81276,-16.21777 -4.77758,-18.97659 -15.65842,-21.98608 -1.19701,-0.33108 -3.95657,-2.38215 -6.13235,-4.55794 C 280.7754,668.54011 278.29853,667 276.82909,667 c -1.32341,0 -4.07148,-0.849 -6.10681,-1.88668 C 263.1377,661.24649 255,661.66206 255,665.91623 c 0,1.08116 -0.45,2.24385 -1,2.58377 -1.43311,0.88571 -1.23376,-2.41156 0.48918,-8.09107 0.81904,-2.69991 1.49404,-5.84152 1.5,-6.98135 0.0163,-3.11314 5.69631,-12.98515 9.13709,-15.88037 2.55979,-2.15393 4.02387,-2.54721 9.48257,-2.54721 11.01733,0 15.97462,3.47554 17.11819,12.0015 0.43472,3.2411 0.15979,4.37079 -1.34005,5.50629 -2.44773,1.85314 -1.49896,1.85477 2.9281,0.005 1.95763,-0.81795 6.62508,-1.74072 10.37212,-2.0506 6.33878,-0.52422 7.13603,-0.35556 11.45834,2.424 7.0216,4.5154 9.79136,10.9367 9.781,22.67586 -0.0109,12.36867 -0.0234,12.34772 6.96677,11.71388 5.39967,-0.48963 5.9841,-0.32249 9.41942,2.69376 2.35348,2.06638 4.05372,4.70167 4.75694,7.37302 0.6019,2.2865 1.76367,6.40726 2.58171,9.15726 1.97914,6.65329 5.01727,30.75754 7.3734,58.5 1.366,16.08405 1.71759,17.62767 4.84505,21.27138 5.78821,6.74369 14.76955,25.84076 17.1504,36.46702 1.4714,6.56716 3.83032,9.59501 9.78849,12.56423 4.2307,2.10835 5.97865,3.90042 12.67863,12.99865 1.09304,1.4843 2.55554,2.69872 3.25,2.69872 0.69446,0 1.26265,0.41786 1.26265,0.92857 0,0.51072 0.62745,1.55602 1.39433,2.3229 2.29654,2.29654 5.60567,10.41898 5.60567,13.75941 0,6.14776 -1.20979,6.99991 -9.78518,6.89241 -4.24315,-0.0532 -10.46911,-0.84069 -13.83547,-1.75 z M 253.54271,861.25 c 2.635,-6.09396 3.2163,-33.7817 0.95712,-45.58797 -1.70534,-8.91192 -1.91034,-25.96691 -0.39261,-32.66203 0.56106,-2.475 1.38817,-6.975 1.83802,-10 0.44984,-3.025 1.80019,-8.2 3.00076,-11.5 1.20057,-3.3 2.56048,-8.025 3.02201,-10.5 0.46153,-2.475 1.29175,-5.625 1.84493,-7 0.55319,-1.375 1.74796,-5.2 2.65505,-8.5 0.90709,-3.3 2.07287,-6.78139 2.59063,-7.73643 0.51776,-0.95504 0.97562,-3.20504 1.01746,-5 0.0418,-1.79496 0.68261,-4.83857 1.42392,-6.76357 1.3308,-3.45574 1.34881,-3.46439 1.42392,-0.68402 0.0979,3.62275 -3.55797,19.71294 -5.94926,26.18402 -4.66025,12.61114 -6.93413,47.15567 -6.02294,91.5 0.0961,4.675 -0.0574,10.075 -0.34091,12 -0.28356,1.925 -0.76613,6.36216 -1.07237,9.86035 C 258.8707,862.4879 258.60618,863 255.33399,863 c -2.04823,0 -2.39956,-0.34323 -1.79128,-1.75 z m -42.18506,-15.29235 c -1.17771,-1.17771 0.2342,-13.90634 1.70908,-15.40765 1.238,-1.2602 1.46005,4.25831 0.51231,12.73275 -0.37766,3.37699 -0.89561,4.00068 -2.22139,2.6749 z m 11.4188,-83.51453 c -1.40172,-1.40173 4.17968,-17.24349 9.49267,-26.94312 0.60252,-1.1 2.33228,-5.6 3.84391,-10 2.61989,-7.62592 2.75164,-7.8087 2.81769,-3.90893 0.0381,2.25009 -0.52782,6.07509 -1.25761,8.5 -0.72979,2.42491 -1.35735,4.63393 -1.39458,4.90893 -0.18421,1.3609 -5.88633,12.86242 -7.64005,15.41045 -1.10174,1.60075 -2.10861,3.85075 -2.23748,5 -0.25865,2.30666 -2.14473,7.58955 -2.70958,7.58955 -0.19695,0 -0.60868,-0.2506 -0.91497,-0.55688 z m 16.52834,-76.45922 c 2.13778,-4.40886 4.79582,-8.50256 5.90675,-9.09711 1.11092,-0.59455 1.83744,-0.6998 1.61448,-0.2339 C 239.65786,691.63193 238.1291,694 235.62716,694 c -0.11509,0 1.53984,-3.60725 3.67763,-8.0161 z M 248,675.05902 c 0,-0.51754 0.44485,-1.21592 0.98855,-1.55194 0.56686,-0.35034 0.7345,0.0511 0.39301,0.94098 C 248.71677,676.18048 248,676.49745 248,675.05902 z m 204.625,-42.85677 c -0.27117,-0.43876 -0.0796,-1.45126 0.42567,-2.25 0.71729,-1.13385 0.92206,-0.95896 0.93402,0.79775 0.0157,2.31303 -0.49232,2.85568 -1.35969,1.45225 z M 624,604.05902 C 624,603.47656 624.45,603 625,603 c 0.55,0 1,0.19844 1,0.44098 0,0.24254 -0.45,0.7191 -1,1.05902 -0.55,0.33992 -1,0.14148 -1,-0.44098 z m 96,-27.59745 c -3.575,-0.74786 -8.55105,-1.80291 -11.05789,-2.34456 -4.60082,-0.9941 -10.02057,-3.06555 -10.94211,-4.18212 -0.275,-0.3332 -1.4,-1.15135 -2.5,-1.8181 -1.91232,-1.15914 -1.90136,-1.18532 0.25,-0.59715 1.2375,0.33832 2.25,0.21277 2.25,-0.27901 0,-0.51196 2.07142,-0.46982 4.84626,0.0986 6.20141,1.27034 8.6587,0.47281 7.16168,-2.32439 C 709.05879,563.24133 709.23329,563 711.46482,563 c 1.39435,0 2.53518,0.41425 2.53518,0.92054 0,0.5063 1.4625,1.23327 3.25,1.61548 1.7875,0.38221 3.7,1.04235 4.25,1.46697 1.55361,1.19947 9.74157,1.76588 12.27684,0.84927 1.25227,-0.45274 2.68624,-1.84222 3.18662,-3.08772 0.64287,-1.60021 0.92836,-1.77391 0.97315,-0.59209 0.0641,1.68977 6.63548,4.5888 7.78838,3.43589 0.32505,-0.32504 1.1949,-0.0898 1.933,0.52278 0.98963,0.82132 1.7138,0.80521 2.75791,-0.0613 1.13456,-0.9416 1.55369,-0.74098 2.10933,1.00968 0.40563,1.27805 0.96929,1.73841 1.35813,1.10925 0.36559,-0.59155 2.9039,-1.60654 5.64068,-2.25554 2.73678,-0.64901 6.10096,-1.65486 7.47596,-2.23524 1.375,-0.58038 2.725,-1.12621 3,-1.21296 0.275,-0.0868 1.27265,-0.49881 2.21701,-0.91569 0.94436,-0.41688 2.2307,-0.58673 2.85854,-0.37745 C 776.42481,563.6416 765.40914,571 763.38659,571 762.5126,571 762,572.10905 762,574 c 0,2.10063 -0.4864,3 -1.62244,3 -1.3288,0 -1.39713,-0.27149 -0.37756,-1.5 1.75364,-2.113 -0.35019,-1.97232 -3.73867,0.25 -3.4915,2.28989 -26.55319,2.74244 -36.26133,0.71157 z M 778,559 c 0,-0.55 0.70156,-1 1.55902,-1 0.85746,0 1.2809,0.45 0.94098,1 -0.33992,0.55 -1.04148,1 -1.55902,1 C 778.42344,560 778,559.55 778,559 z m 17.80063,-12.12322 c -0.75313,-0.46546 0.14602,-1.50277 2.51336,-2.89953 C 800.3413,542.78111 802,541.1719 802,540.40122 802,539.63055 802.47537,539 803.05637,539 c 0.581,0 2.32473,-1.38867 3.87494,-3.08594 1.95455,-2.13995 3.54664,-2.98296 5.19363,-2.75 3.17268,0.44876 3.01742,3.00112 -0.27865,4.58088 -2.40311,1.15178 -2.60459,1.67246 -2.13352,5.51348 0.49457,4.0326 0.44056,4.14304 -1.09628,2.24158 -1.4692,-1.81777 -1.73127,-1.85307 -2.87622,-0.38746 -1.36781,1.75089 -8.04391,2.93587 -9.93964,1.76424 z m -86.46396,-16.94011 c -0.54092,-0.54092 -2.04238,-1.18741 -3.33658,-1.43665 C 702.04139,527.73764 700.31854,523 704,523 c 1.1,0 2,-0.54 2,-1.2 0,-0.93333 0.26667,-0.93333 1.2,0 1.44926,1.44926 6.8,1.60664 6.8,0.2 0,-0.55 0.62252,-1 1.38337,-1 0.76085,0 1.63318,-0.95527 1.9385,-2.12283 0.47666,-1.82276 1.04466,-2.03099 4.01833,-1.47313 2.35456,0.44172 3.90657,0.20633 4.84822,-0.73532 0.76176,-0.76176 3.03204,-1.98059 5.04506,-2.70851 2.01302,-0.72791 3.4618,-1.64424 3.21951,-2.03627 -0.45017,-0.7284 -28.32781,-2.39441 -36.44295,-2.17789 -4.17376,0.11136 -4.87198,-0.26529 -9.91472,-5.3484 -4.36518,-4.40013 -5.17285,-5.70547 -4.13504,-6.68293 1.01266,-0.95377 1.38818,-0.9462 1.74805,0.0353 0.53989,1.47243 5.90187,1.68973 6.77645,0.27463 0.61256,-0.99115 2.50982,-0.83886 10.45973,0.8396 2.8692,0.60577 5.35028,0.58367 7,-0.0623 1.40552,-0.55039 6.38049,-1.22326 11.05549,-1.49527 4.675,-0.27202 8.64091,-0.875 8.81312,-1.33996 0.17222,-0.46497 6.61141,-0.64688 14.3093,-0.40424 13.66481,0.43071 14.12898,0.37613 19.6053,-2.30537 3.65494,-1.78964 5.74135,-2.34984 5.98865,-1.60794 0.20874,0.62622 1.17106,0.93158 2.13849,0.67859 1.23335,-0.32252 2.33284,0.60565 3.67946,3.10616 1.49116,2.76893 2.5403,3.56614 4.69308,3.56614 2.78038,0 3.68295,1.31934 1.7288,2.52707 -0.5741,0.35481 -1.6991,0.10127 -2.5,-0.56342 -1.19268,-0.98984 -1.4562,-0.84527 -1.4562,0.7989 0,3.48251 -3.93964,5.14394 -10.73616,4.52766 -5.62096,-0.50969 -6.21513,-0.36144 -8.33837,2.0805 -1.25738,1.44611 -2.65499,2.62929 -3.10581,2.62929 -0.45081,0 -1.71966,0.9 -2.81966,2 -2.36418,2.36418 -0.46094,2.72712 2.10825,0.40204 0.97115,-0.87888 2.24408,-1.30232 2.82874,-0.94098 1.92935,1.1924 1.10985,2.36974 -2.14748,3.08517 -1.76578,0.38783 -4.53026,1.66109 -6.1433,2.82946 -2.14732,1.55536 -3.05288,1.78285 -3.38115,0.84939 -0.59532,-1.69288 -6.80345,1.94214 -10.36378,6.06826 -1.56037,1.80834 -3.07622,2.71657 -3.7938,2.27309 -0.6573,-0.40624 -1.8429,-0.20097 -2.63467,0.45614 -0.79177,0.65711 -4.96186,1.29163 -9.26686,1.41006 -4.30501,0.11842 -8.29045,0.50156 -8.85654,0.85142 -0.56608,0.34986 -1.47182,0.19354 -2.01274,-0.34738 z M 740,511 c 0,-0.55 -0.45,-1 -1,-1 -0.55,0 -1,0.45 -1,1 0,0.55 0.45,1 1,1 0.55,0 1,-0.45 1,-1 z m -1.66667,13.40466 c 0,-0.77256 0.45207,-1.40466 1.0046,-1.40466 0.55252,0 1.89718,-0.7875 2.98813,-1.75 1.95976,-1.72902 1.96299,-1.71804 0.26875,0.91603 -1.98385,3.08434 -4.26148,4.28081 -4.26148,2.23863 z M 898,520.5 c 0,-0.825 0.43588,-1.5 0.96862,-1.5 0.53273,0 0.70959,0.675 0.39301,1.5 -0.31659,0.825 -0.75246,1.5 -0.96862,1.5 C 898.17686,522 898,521.325 898,520.5 z M 643,507.05902 c 0,-0.51754 0.45,-1.2191 1,-1.55902 0.55,-0.33992 1,0.0835 1,0.94098 0,0.85746 -0.45,1.55902 -1,1.55902 -0.55,0 -1,-0.42344 -1,-0.94098 z m 141,-8.5 c 0,-0.24254 0.45,-0.7191 1,-1.05902 0.55,-0.33992 1,-0.14148 1,0.44098 0,0.58246 -0.45,1.05902 -1,1.05902 -0.55,0 -1,-0.19844 -1,-0.44098 z M 659.08764,489.24873 C 657.62251,487.68031 658.34243,485 660.22883,485 c 1.07236,0 6.77117,4.49469 6.77117,5.34047 0,0.9503 -6.89329,-8.2e-4 -7.91236,-1.09174 z M 705.5,466 c 0.33992,-0.55 2.36492,-1 4.5,-1 2.13508,0 4.16008,-0.45 4.5,-1 0.33992,-0.55 1.30684,-1 2.14872,-1 0.84188,0 2.29124,-0.93923 3.2208,-2.08719 1.52027,-1.87745 2.74221,-2.0859 12.16029,-2.07436 5.7586,0.007 11.63968,-0.43013 13.06905,-0.97153 3.22721,-1.22235 7.61895,-8.54911 6.05931,-10.10875 -0.75691,-0.75691 -4.39894,-0.44049 -12.51242,1.08707 -12.95698,2.43948 -18.13022,2.74767 -17.06021,1.01635 0.50266,-0.81331 -0.31494,-0.94734 -2.863,-0.46932 -1.96162,0.36801 -3.8153,0.26665 -4.1193,-0.22522 -0.304,-0.49188 -2.37335,-0.89432 -4.59856,-0.89432 -2.23308,0 -4.82072,-0.6915 -5.77526,-1.54334 -2.21884,-1.98009 -9.78306,-4.00583 -12.1513,-3.25419 -1.2597,0.39982 -2.73862,-0.46344 -4.78303,-2.79189 -3.85621,-4.39198 -8.0348,-5.85451 -12.99933,-4.54985 -3.66779,0.96388 -8.2806,5.14934 -8.29079,7.5227 -0.011,2.5595 -19.28173,2.78036 -23.96475,0.27466 -0.84712,-0.45326 -4.01522,-1.58153 -7.04022,-2.50726 -3.025,-0.92573 -9.13286,-3.42474 -13.57303,-5.55335 C 616.9868,433.74159 612.76491,432 612.045,432 c -3.78841,0 -18.60339,-11.63747 -29.64797,-23.28908 -8.43008,-8.89343 -18.26477,-23.73383 -22.67146,-34.21092 -1.38798,-3.3 -3.74927,-8.90492 -5.24729,-12.45537 -1.49803,-3.55046 -2.92798,-8.27546 -3.17766,-10.5 -0.24969,-2.22455 -0.82538,-4.94463 -1.2793,-6.04463 -0.45393,-1.1 -1.34268,-5.375 -1.975,-9.5 -0.63232,-4.125 -1.99776,-11.775 -3.03431,-17 -2.04072,-10.2868 -3.19976,-23 -2.09686,-23 0.37667,0 1.22485,0.54 1.88485,1.2 0.66,0.66 1.2,0.8299 1.2,0.37756 0,-0.45235 0.73296,-0.21415 1.62879,0.52933 1.75156,1.45366 2.81484,1.5549 23.49371,2.23695 8.09746,0.26708 14.56624,0.9544 15.94939,1.69464 4.13101,2.21084 45.28353,3.39379 72.42811,2.08197 13.2,-0.63792 25.575,-1.55492 27.5,-2.03779 1.925,-0.48286 2.7125,-0.924 1.75,-0.9803 -0.9625,-0.0563 -1.75,-0.60114 -1.75,-1.21077 0,-0.68377 -0.96041,-0.86736 -2.50693,-0.47921 -1.37881,0.34606 -2.45052,0.28235 -2.38158,-0.14159 0.0689,-0.42393 0.0721,-1.755 0.007,-2.95792 -0.10423,-1.92501 -0.53575,-2.1194 -3.6007,-1.62203 -2.63725,0.42796 -3.63217,0.17449 -4.09996,-1.04456 -0.45368,-1.18226 -1.08042,-1.362 -2.36046,-0.67695 -1.97361,1.05625 -10.2774,0.51038 -12.85428,-0.845 -2.52659,-1.32893 -15.67948,-2.54811 -38.10553,-3.5321 -22.18225,-0.9733 -22.695,-3.17368 -0.80153,-3.4396 29.56319,-0.35907 106.10185,-3.37737 143.20404,-5.64724 3.85,-0.23554 11.725,-0.69602 17.5,-1.02328 5.775,-0.32726 12.3,-0.75624 14.5,-0.95329 2.2,-0.19705 8.95,-0.70516 15,-1.12915 6.05,-0.42398 10.20699,-0.94641 9.23776,-1.16096 -0.96924,-0.21454 -1.57471,-0.69352 -1.34549,-1.06439 0.22921,-0.37088 -1.67778,-0.68216 -4.23776,-0.69174 -2.55998,-0.01 -11.40451,-0.34895 -19.65451,-0.75417 -47.01219,-2.30909 -120.16049,-2.71897 -149.5,-0.83771 -54.6929,3.50693 -64.9897,4.27971 -70.20154,5.26862 -11.73009,2.2257 -14.82133,-1.99447 -4.28498,-5.84988 C 577.98199,268.5766 578,268.57586 578,271 c 0,1.75601 0.66667,2 5.46482,2 4.4013,0 5.66864,-0.38085 6.51215,-1.95697 0.58036,-1.0844 2.58691,-2.24579 4.50027,-2.60474 1.89911,-0.35627 3.35614,-0.98658 3.23785,-1.40067 -0.1183,-0.4141 2.59741,-3.78249 6.03491,-7.48533 3.4375,-3.70284 6.25557,-7.0294 6.26238,-7.39236 0.007,-0.36296 1.58181,-1.67657 3.5,-2.91912 2.51416,-1.62861 3.48762,-2.98698 3.48762,-4.86663 0,-2.11571 0.37744,-2.50874 2.00138,-2.08407 1.10076,0.28785 1.77446,0.15622 1.49712,-0.29253 -0.27734,-0.44875 2.67882,-1.3528 6.56925,-2.00901 8.93004,-1.50624 9.757,-3.04498 4.25589,-7.91901 -2.21585,-1.96326 -5.40717,-5.62044 -7.09183,-8.12708 -4.58937,-6.82858 -5.2769,-7.20206 -9.30018,-5.05202 -1.95811,1.04642 -3.56884,2.75184 -3.75118,3.97171 -0.17575,1.17581 -0.78833,2.13783 -1.36129,2.13783 -0.64177,0 -0.79846,1.2968 -0.40811,3.37753 0.53268,2.83946 0.31145,3.46177 -1.38871,3.90638 -1.59396,0.41683 -2.02234,1.35549 -2.02234,4.43134 0,5.18365 -1.31831,6.63821 -8.84509,9.75918 -5.86773,2.43304 -6.52208,2.51501 -8.6976,1.08955 -1.29389,-0.84778 -3.00558,-1.29082 -3.80376,-0.98453 -0.79819,0.30629 -1.75964,0.0579 -2.13656,-0.55195 -0.37692,-0.60987 -1.49118,-0.85308 -2.47615,-0.54046 -1.39871,0.44393 -1.79084,0.0149 -1.79084,-1.95933 0,-1.39024 0.37563,-2.52771 0.83474,-2.52771 0.45911,0 0.74036,-1.29208 0.625,-2.87129 -0.14351,-1.96463 -0.64089,-2.70628 -1.57514,-2.34873 -1.0439,0.39952 -1.17558,-0.0428 -0.55923,-1.87871 0.44339,-1.3207 0.82416,-4.08877 0.84617,-6.15127 0.022,-2.06654 0.54039,-3.75 1.15464,-3.75 0.81755,0 0.8209,-1.13277 0.0126,-4.25 -0.60614,-2.3375 -1.38119,-4.7 -1.72233,-5.25 -0.34114,-0.55 -0.93261,-4.00163 -1.31439,-7.67028 -0.42826,-4.11536 -1.20723,-6.86717 -2.03371,-7.18432 -0.86192,-0.33075 -1.31518,-2.12833 -1.27114,-5.04121 0.0376,-2.48994 0.44827,-4.29242 0.9125,-4.00551 1.17993,0.72924 2.91716,-4.23489 2.16656,-6.19092 -0.72255,-1.88293 1.77747,-3.858 2.79645,-2.20926 0.37151,0.60112 1.34672,0.83535 2.16713,0.52053 1.17322,-0.45021 1.39709,-1.92228 1.04869,-6.89572 -0.46064,-6.57547 0.82629,-10.61836 2.5361,-7.9672 0.57262,0.88788 0.83818,-0.0327 0.76912,-2.66633 -0.058,-2.21234 -0.5172,-3.76797 -1.02044,-3.45696 -0.52973,0.3274 -0.62616,-0.65518 -0.22903,-2.33367 l 0.68594,-2.89915 -2.0335,3 c -1.30612,1.92689 -2.03587,2.42226 -2.0401,1.38486 -0.004,-0.88833 0.94471,-2.82453 2.10741,-4.30266 1.16271,-1.47814 1.84401,-2.95752 1.51401,-3.28752 -0.33,-0.33 -1.53896,0.59369 -2.68659,2.05266 -1.2381,1.57399 -3.07774,2.65266 -4.52404,2.65266 -2.429,0 -2.42178,-0.0312 2.08262,-9 2.48604,-4.95 4.94319,-9 5.46035,-9 0.51715,0 1.4044,0.7875 1.97166,1.75 0.89955,1.52629 1.15961,1.55825 2.03438,0.25 0.55164,-0.825 1.00298,-1.95 1.00298,-2.5 0,-0.55 -0.45134,-0.325 -1.00298,0.5 -0.87357,1.30645 -1.13758,1.27148 -2.04615,-0.27103 -0.57374,-0.97407 -1.47629,-1.50334 -2.00568,-1.17616 -0.52939,0.32717 -0.015,-1.80086 1.14317,-4.72897 1.15812,-2.92811 2.3464,-6.11134 2.64061,-7.07384 0.29421,-0.9625 1.21254,-1.75 2.04074,-1.75 1.19526,0 1.26004,-0.29614 0.31408,-1.43595 -0.99937,-1.20416 -0.70073,-1.37381 1.85005,-1.05099 1.67298,0.21173 3.35298,-0.11857 3.73333,-0.73399 0.45048,-0.7289 0.11148,-0.89636 -0.9725,-0.48039 -1.12237,0.43069 -1.66404,0.12063 -1.66404,-0.95251 0,-1.36715 -0.23414,-1.39791 -1.66372,-0.21861 -1.49113,1.23007 -1.55007,1.16497 -0.56818,-0.62756 0.60255,-1.1 2.47622,-3.49027 4.16372,-5.31172 1.6875,-1.82144 3.06818,-3.56984 3.06818,-3.88533 0,-0.31548 1.05354,-1.52521 2.34121,-2.68828 7.35433,-6.64272 9.53896,-8.400522 13.15879,-10.587891 2.2,-1.329402 4.3494,-2.985584 4.77645,-3.680404 0.42704,-0.694819 1.41953,-1.016532 2.20553,-0.714917 0.78599,0.301615 2.53932,-0.561848 3.89628,-1.918807 1.64517,-1.645172 2.80045,-2.133939 3.46742,-1.466969 0.66697,0.666971 1.99358,0.292899 3.98165,-1.122727 C 634.4671,86.95533 636.70965,86 637.81075,86 c 1.45428,0 1.86989,-0.505236 1.51909,-1.8467 -0.32512,-1.243235 0.60412,-2.718672 2.84362,-4.515075 1.8296,-1.467606 3.80488,-3.050719 4.38953,-3.518029 2.37919,-1.901711 5.5367,-3.17662 6.45768,-2.607423 C 653.5593,73.845666 654,73.641476 654,73.059017 654,72.476558 654.46756,72 655.03903,72 c 0.57147,0 2.79046,-1.734013 4.9311,-3.853361 5.21027,-5.158462 10.07954,-7.357006 15.32109,-6.917694 5.03931,0.422362 6.80726,1.350839 6.09693,3.201929 -0.28847,0.751754 0.0326,1.711163 0.71362,2.13202 0.85246,0.526851 1.04795,0.26965 0.62761,-0.825736 -0.33577,-0.875012 0.0192,-2.113545 0.78886,-2.752295 1.12404,-0.932872 1.52514,-0.66021 2.03867,1.385868 0.67144,2.675214 3.10354,5.302148 4.04099,4.3647 0.30227,-0.302264 -0.16125,-1.924144 -1.03003,-3.604179 -1.51461,-2.928929 -1.48678,-3.105637 0.67627,-4.294838 C 692.25345,59.181954 694,58.95087 694,60.207173 c 0,0.566612 1.4625,-0.03989 3.25,-1.347782 C 702.29793,55.165879 708.56432,52 710.82714,52 c 1.13015,0 2.34573,-0.4707 2.70129,-1.046 0.60591,-0.980381 32.91753,-0.414447 34.56776,0.605449 1.63638,1.011338 11.81918,1.386502 12.39387,0.456627 0.3479,-0.56291 1.3897,-0.681768 2.32063,-0.264759 1.96137,0.878594 5.25185,0.927443 6.69051,0.09932 0.54934,-0.316213 5.71617,0.0031 11.48183,0.709536 5.76567,0.706458 10.71567,1.247982 11,1.203388 0.28434,-0.0446 1.36408,0.28638 2.39944,0.735498 1.14841,0.49816 2.65667,0.33308 3.86789,-0.423344 1.28905,-0.805025 2.32725,-0.898105 2.95998,-0.265376 0.536,0.536 2.65018,0.749796 4.69818,0.475102 3.13822,-0.420923 4.1849,-0.04044 6.65756,2.420124 2.8116,2.797844 3.53846,2.974009 17.43392,4.22534 15.21379,1.370051 22.61414,3.361098 34.27749,9.222277 3.17762,1.596847 9.92762,4.285426 15,5.974618 14.94919,4.978344 18.45297,6.750178 20.62367,10.429241 1.08414,1.83748 3.46239,4.320234 5.285,5.517231 1.82261,1.196997 4.49631,3.696824 5.94154,5.55517 1.44524,1.858345 5.35364,5.557838 8.68533,8.221098 7.47472,5.97508 9.4868,8.39611 15.96288,19.20738 9.16957,15.30784 12.83722,32.35031 8.22409,38.21495 -2.33037,2.96259 -2.55108,8.13914 -0.5,11.72713 2.09991,3.6734 2.00342,26.1281 -0.15062,35.05257 -1.53725,6.36904 -1.53629,7.01322 0.0139,9.37916 2.57796,3.93446 5.90401,5.61535 13.13867,6.6399 3.66088,0.51845 7.50088,1.39471 8.53333,1.94727 2.7456,1.4694 3.95749,7.17838 3.92315,18.4811 -0.0277,9.11844 -0.24717,10.26447 -2.48946,13 -2.3517,2.86901 -2.45928,2.90036 -2.46403,0.71788 -0.003,-1.25516 -0.63235,-3.78365 -1.39915,-5.61886 -1.08914,-2.60667 -2.1557,-3.4796 -4.8747,-3.98968 -3.47337,-0.65161 -3.47947,-0.6624 -2.96329,-5.24191 l 0.51724,-4.58895 -2.89253,0.57665 c -1.5909,0.31715 -6.59047,1.09163 -11.11016,1.72106 -6.66796,0.92861 -8.3336,1.50983 -8.83262,3.0821 -0.75082,2.36563 1.12741,4.84171 3.67268,4.84171 1.03266,0 1.87756,0.41045 1.87756,0.9121 0,1.12653 7.51566,2.62405 11.25,2.2416 4.00805,-0.41048 3.37078,1.63921 -0.75,2.41228 -1.925,0.36113 -3.5,0.98529 -3.5,1.38702 0,1.0754 -6.45625,2.82739 -18.67764,5.06841 -5.9523,1.09147 -13.07236,2.65076 -15.82236,3.46508 l -5,1.48059 7,-0.55628 c 12.98068,-1.03155 30.71833,-4.4653 40.97679,-7.93251 3.83723,-1.29693 7.21223,-2.12203 7.5,-1.83357 0.28776,0.28847 0.48218,5.32391 0.43203,11.18988 -0.0663,7.75281 -0.83172,13.90319 -2.80289,22.52162 -3.18895,13.94283 -9.66813,28.36912 -13.60593,30.29443 -1.375,0.67228 -5.9904,2.80511 -10.25645,4.73961 -6.10693,2.76928 -8.2183,4.30006 -9.92816,7.19805 -2.03031,3.44113 -2.22311,3.5418 -2.96132,1.54623 -0.43426,-1.174 -0.94674,-2.13454 -1.1388,-2.13454 -0.19206,0 -2.98892,1.35 -6.21524,3 -3.22632,1.65 -6.51378,3 -7.30546,3 -1.16611,0 -1.20305,0.28482 -0.19454,1.5 0.68469,0.825 1.66588,1.5 2.18043,1.5 0.51454,0 2.89869,1.99134 5.29809,4.4252 4.12601,4.18527 4.38517,4.78799 4.77967,11.11621 0.48899,7.84378 -0.60034,9.65257 -9.38697,15.58665 -4.45467,3.00848 -6.01113,3.54434 -9.12122,3.1403 -3.11863,-0.40515 -3.75,-0.8787 -3.75,-2.81267 0,-1.27902 0.47496,-3.57472 1.05546,-5.10156 0.5805,-1.52683 0.7793,-3.87636 0.44178,-5.22116 -0.99024,-3.94541 -3.22838,-0.65173 -4.355,6.40888 -1.4249,8.92994 -6.08519,15.84751 -9.32665,13.84418 -0.55216,-0.34126 -0.79218,-1.72818 -0.53336,-3.08206 0.29501,-1.54327 -0.054,-2.66291 -0.93564,-3.00121 -0.85262,-0.32718 -1.17189,-1.27784 -0.811,-2.41489 0.44808,-1.41179 0.20829,-1.72682 -0.9702,-1.27459 -1.64767,0.63227 -1.90651,-0.15916 -1.59466,-4.87588 0.22312,-3.37476 -0.88251,-8.73878 -1.80019,-8.73365 -0.36879,0.002 -1.48345,2.13956 -2.477,4.75 -3.69759,9.71496 -9.84682,21.48762 -14.73164,28.20363 -5.66851,7.7935 -17.2691,18.96324 -23.09582,22.23804 -2.12634,1.19508 -3.86608,2.54 -3.86608,2.98872 0,0.44872 -0.47942,0.81586 -1.06538,0.81586 -0.58596,0 -4.97346,2.15393 -9.75,4.78651 -4.77654,2.63259 -11.27212,5.83485 -14.43462,7.11615 -3.1625,1.28129 -5.75,2.6801 -5.75,3.10845 0,0.42835 -1.6875,1.01633 -3.75,1.30661 -4.40271,0.61966 -18.23081,5.08954 -23.25,7.51548 -2.92491,1.41371 -3.5,2.22064 -3.5,4.91104 0,2.13547 -0.92587,4.20531 -2.75,6.14776 -1.5125,1.61061 -2.75,3.41879 -2.75,4.01819 0,1.61558 -1.6974,1.32076 -2.36163,-0.41019 -0.75745,-1.9739 -5.53431,-1.93474 -6.29655,0.0516 -0.4335,1.12969 -1.37691,1.37996 -3.46944,0.92036 -2.14755,-0.47168 -3.03447,-0.21315 -3.50874,1.02278 -0.43743,1.13992 -1.34391,1.47603 -2.91642,1.08136 -1.25493,-0.31497 -2.43144,-0.20892 -2.61446,0.23567 -0.18302,0.44459 -2.96145,1.54691 -6.1743,2.44959 -4.62548,1.29958 -6.23883,1.39313 -7.75,0.44939 -1.48498,-0.92738 -2.34924,-0.91658 -3.89489,0.0487 -1.09254,0.6823 -2.89254,1.24055 -4,1.24055 -1.10746,0 -2.01357,0.53601 -2.01357,1.19113 0,0.65512 -0.66645,0.31762 -1.481,-0.75 -1.1437,-1.49904 -1.67434,-1.64873 -2.32995,-0.65726 -0.46692,0.70613 -1.60047,0.99548 -2.519,0.64301 C 714.7298,465.06607 714,465.26977 714,465.89301 714,466.54045 712.10741,467 709.44098,467 c -2.7847,0 -4.31848,-0.38919 -3.94098,-1 z M 591.79633,391.04548 c -0.67134,-1.07499 -1.36075,-1.8144 -1.53201,-1.64313 -0.59277,0.59277 0.95337,3.59765 1.85114,3.59765 0.49582,0 0.35221,-0.87953 -0.31913,-1.95452 z M 624,356.5 c 0,-0.825 -0.675,-1.5 -1.5,-1.5 -0.825,0 -1.5,0.675 -1.5,1.5 0,0.825 0.675,1.5 1.5,1.5 0.825,0 1.5,-0.675 1.5,-1.5 z m -72.90381,-18.22124 c -0.87653,-1.50586 -1.04004,-1.30572 -1.06578,1.30457 -0.0167,1.69584 0.30709,3.42606 0.71959,3.84494 1.19384,1.2123 1.48948,-3.18536 0.34619,-5.14951 z M 583.8,342.8 c 1.35364,-1.35364 1.65681,-8.8 0.35829,-8.8 -0.81614,0 -3.15829,6.57494 -3.15829,8.86602 0,1.47635 1.288,1.44598 2.8,-0.066 z M 564,337.08179 c 0,-1.60502 0.27314,-3.63002 0.60699,-4.5 C 564.94083,331.7118 564.75985,331 564.20481,331 563.17707,331 561,336.19621 561,338.64922 c 0,0.74293 0.675,1.35078 1.5,1.35078 0.99066,0 1.5,-0.99091 1.5,-2.91821 z M 646.81037,317.25 c -0.26904,-3.25057 -0.64332,-3.75 -2.81037,-3.75 -4.81897,0 -3.03713,7.35054 1.81037,7.4682 0.90667,0.022 1.21474,-1.12348 1,-3.7182 z m -4.34326,-10.11622 c -0.94145,-0.94146 -2.33028,2.05922 -1.70602,3.686 0.43924,1.14467 0.77859,0.95361 1.42896,-0.8045 0.4691,-1.2681 0.59378,-2.56478 0.27706,-2.8815 z M 646,309.55902 c 0,-0.79254 -0.45,-1.7191 -1,-2.05902 -0.55,-0.33992 -1,0.30852 -1,1.44098 0,1.13246 0.45,2.05902 1,2.05902 0.55,0 1,-0.64844 1,-1.44098 z M 874,285 c 0,-0.55 -0.45,-1 -1,-1 -0.55,0 -1,0.45 -1,1 0,0.55 0.45,1 1,1 0.55,0 1,-0.45 1,-1 z m 4.99271,-10.52604 c -0.8999,-3.21412 -1.59837,-4.2683 -2.33799,-3.52868 -0.73963,0.73963 -0.69622,1.41322 0.14528,2.25472 0.66,0.66 1.2,2.16 1.2,3.33333 0,1.17334 0.3,2.43334 0.66667,2.8 1.42658,1.42659 1.55406,-0.47331 0.32604,-4.85937 z M 829,274.61663 c 0,-0.90929 -3.89829,-1.29567 -5.1393,-0.50937 -0.92513,0.58614 -0.32034,0.86702 1.8893,0.87743 1.7875,0.008 3.25,-0.15721 3.25,-0.36806 z m 55.1875,-4.29974 c -0.72187,-0.28887 -1.58438,-0.25335 -1.91667,0.0789 -0.33229,0.33229 0.25834,0.56864 1.3125,0.52522 1.16495,-0.048 1.4019,-0.28494 0.60417,-0.60416 z m 9.0625,-0.97917 c -0.6875,-0.27741 -1.8125,-0.27741 -2.5,0 -0.6875,0.27741 -0.125,0.50439 1.25,0.50439 1.375,0 1.9375,-0.22698 1.25,-0.50439 z M 904,268.3865 C 904,268.17393 902.65,268 901,268 c -1.65,0 -3,0.37206 -3,0.82681 0,0.45474 1.35,0.62867 3,0.3865 1.65,-0.24217 3,-0.61423 3,-0.82681 z m 59.47752,-31.51584 c 1.40375,-1.32934 -0.70497,-4.29972 -3.32965,-4.69021 -1.40766,-0.20943 -2.14787,0.2125 -2.14787,1.22432 0,0.84913 -1.35,2.24198 -3,3.09523 -1.65,0.85325 -3,1.80703 -3,2.11952 0,0.87753 10.37318,-0.70306 11.47752,-1.74886 z M 589,183 c 0,-0.55 -0.45,-1 -1,-1 -0.55,0 -1,0.45 -1,1 0,0.55 0.45,1 1,1 0.55,0 1,-0.45 1,-1 z m 6.88575,-17.83478 c -0.25038,-5.91038 -0.54144,-6.39719 -2.93211,-4.90419 -2.57515,1.6082 -2.72965,8.20531 -0.225,9.60699 2.64373,1.4795 3.37299,0.39321 3.15711,-4.7028 z M 590,158.33333 c 0,-0.91666 0.2961,-1.37057 0.65799,-1.00867 0.3619,0.36189 1.2619,0.15679 2,-0.45578 0.73811,-0.61257 1.34201,-0.80153 1.34201,-0.4199 0,0.38163 0.675,0.0189 1.5,-0.80612 0.825,-0.825 1.5,-2.51815 1.5,-3.76256 0,-2.20008 -0.0394,-2.20896 -1.42858,-0.32143 -1.3575,1.84454 -1.46341,1.85126 -2.12855,0.13495 -0.86537,-2.23298 0.66281,-7.89571 2.27589,-8.43341 0.66587,-0.22195 1.56706,1.0633 2.04861,2.92166 0.82841,3.19692 2.8762,4.19902 2.59553,1.27013 -0.0754,-0.78687 0.26739,-1.18069 0.76175,-0.87516 0.49436,0.30553 1.17279,-0.81422 1.50761,-2.48834 0.33482,-1.67412 1.20279,-3.53684 1.92881,-4.13939 0.72603,-0.60254 1.07365,-1.73764 0.7725,-2.52242 C 605.03242,136.6421 605.28417,136 605.89301,136 606.50186,136 607,135.35714 607,134.57143 c 0,-0.78572 0.59247,-2.02322 1.3166,-2.75 0.72412,-0.72679 2.1309,-2.56659 3.12616,-4.08846 1.58008,-2.4161 1.60334,-2.68789 0.18341,-2.14301 -0.89439,0.34321 -1.62617,1.0559 -1.62617,1.58375 0,0.88804 -4.70479,7.69022 -6.10478,8.82629 -0.33888,0.275 -1.37311,1.97721 -2.29828,3.7827 -1.66119,3.24186 -4.09625,3.68206 -2.88333,0.52123 0.41863,-1.09093 0.23838,-1.39229 -0.54367,-0.90896 -0.7594,0.46934 -1.16994,-0.058 -1.16994,-1.50262 0,-1.22413 0.3041,-1.92158 0.67578,-1.5499 0.37169,0.37168 1.21091,-0.79082 1.86494,-2.58333 0.65404,-1.79252 1.54528,-4.15912 1.98054,-5.25912 0.57217,-1.446 0.19409,-1.26381 -1.36494,0.65773 -1.18598,1.46175 -2.15632,3.13512 -2.15632,3.71861 0,0.58348 -1.85332,3.76152 -4.11849,7.0623 -2.34656,3.4194 -3.87054,6.64755 -3.54219,7.50322 0.68342,1.78098 -1.15545,7.55814 -2.40576,7.55814 -0.47893,0 -0.62318,-0.7875 -0.32054,-1.75 0.52368,-1.66551 0.4806,-1.66545 -0.89249,0.001 -1.9508,2.36804 -1.04457,6.749 1.39605,6.749 1.09119,0 1.88342,-0.70105 1.88342,-1.66667 z m 24,-5.21089 c 0,-0.48265 -0.675,-1.43775 -1.5,-2.12244 -1.21651,-1.00961 -1.5,-0.96975 -1.5,0.21089 0,0.80068 0.3,1.75578 0.66667,2.12244 0.94968,0.94969 2.33333,0.82463 2.33333,-0.21089 z M 621,148.5 c 0.68469,-0.825 1.83823,-1.5 2.56343,-1.5 0.72519,0 1.61116,-0.47347 1.9688,-1.05215 0.40871,-0.6613 -0.36624,-0.93991 -2.08609,-0.75 -4.78523,0.52839 -3.70047,-1.8119 1.63918,-3.53641 2.82939,-0.91379 5.76767,-1.66144 6.52951,-1.66144 1.6981,0 1.81786,-1.61455 0.19419,-2.61803 -0.65504,-0.40484 -1.37059,-0.19726 -1.59011,0.46129 -0.23921,0.71764 -1.20998,0.16651 -2.42302,-1.37561 -2.51137,-3.19269 -2.03761,-3.76262 1.89406,-2.27858 2.60944,0.98496 3.41087,0.87238 5.4629,-0.76739 1.32782,-1.06105 2.24711,-2.70542 2.05266,-3.67168 -0.26938,-1.33867 0.31565,-1.75 2.48903,-1.75 1.56266,0 4.52065,-1.14122 6.57333,-2.53605 3.92447,-2.66675 4.94527,-4.18453 1.98213,-2.94713 -4.31834,1.80332 -7.32816,1.23272 -8.83142,-1.67427 C 638.61011,119.27915 637.45771,118 636.85769,118 c -0.60002,0 -0.8556,-0.9 -0.56794,-2 0.28766,-1.1 0.30214,-2 0.0322,-2 -0.26996,0 -3.06802,2.02475 -6.21792,4.49945 C 624.5614,122.85397 620,127.96548 620,129.822 c 0,0.49665 -1.2737,2.50574 -2.83045,4.46465 -2.5629,3.22499 -2.76784,4.04968 -2.16811,8.72459 0.81003,6.31415 3.36973,8.65631 5.99856,5.48876 z m 5,-18.5 c 0,-0.55 0.45,-1 1,-1 0.55,0 1,0.45 1,1 0,0.55 -0.45,1 -1,1 -0.55,0 -1,-0.45 -1,-1 z m 20.63837,-10.5 C 647.34262,117.66478 649,117.51543 649,119.2872 c 0,2.15893 4.23142,1.75411 6.61875,-0.63322 1.4827,-1.48271 2.14654,-3.18783 1.94738,-5.00207 l -0.30215,-2.75254 2.34191,2.20011 c 2.07548,1.94981 2.41394,2.01242 2.975,0.55032 0.3482,-0.90739 1.5115,-1.6498 2.58512,-1.6498 1.07361,0 1.67391,-0.45 1.33399,-1 -0.33992,-0.55 -1.71648,-1 -3.05902,-1 C 662.09844,110 661,109.55 661,109 c 0,-0.55 -0.69649,-1 -1.54775,-1 -0.85126,0 -2.61096,-1.14723 -3.91045,-2.5494 -2.29232,-2.47345 -4.40221,-1.91619 -3.02666,0.7994 0.34825,0.6875 -0.0628,0.39343 -0.91346,-0.6535 -1.41314,-1.73919 -1.6024,-1.7582 -2.19259,-0.2202 -0.41006,1.06861 -1.30231,1.47498 -2.44336,1.11282 -2.24786,-0.71344 -2.98667,0.44794 -3.15636,4.96167 -0.15553,4.13709 -0.50704,4.382 -1.86476,1.29921 -0.79089,-1.79575 -0.90063,-1.36288 -0.5436,2.14412 0.54248,5.32864 3.84539,8.23331 5.23736,4.60588 z m 4.5798,-1.6545 c 0.52095,-1.56287 2.69751,-1.81686 2.96072,-0.3455 0.0984,0.55 -0.62844,1.15548 -1.61517,1.3455 -1.15018,0.22151 -1.63309,-0.13738 -1.34555,-1 z M 647.25,111.28172 c -1.88517,-0.67623 -1.50035,-3.1415 0.44579,-2.85586 1.85081,0.27164 2.89197,2.11655 1.607,2.84755 -0.44154,0.25119 -1.36529,0.25492 -2.05279,0.008 z m 21.75,4.47339 c 0,-0.55783 -0.66326,-0.44954 -1.5,0.24489 -0.825,0.68469 -1.5,1.69489 -1.5,2.24489 0,0.55783 0.66326,0.44954 1.5,-0.24489 0.825,-0.68469 1.5,-1.69489 1.5,-2.24489 z M 610.5,115 c -0.33992,-0.55 -0.81648,-1 -1.05902,-1 -0.24254,0 -0.44098,0.45 -0.44098,1 0,0.55 0.47656,1 1.05902,1 0.58246,0 0.7809,-0.45 0.44098,-1 z m 2.5,-2.13976 c 0,-0.62686 0.7875,-1.73755 1.75,-2.46819 1.27793,-0.97009 1.37511,-1.33702 0.36024,-1.36025 -1.35531,-0.031 -4.01489,2.7197 -4.07844,4.2182 -0.0175,0.4125 0.4182,0.75 0.9682,0.75 0.55,0 1,-0.51289 1,-1.13976 z M 621.36163,97.5 c 0.31658,-0.825 0.41982,-1.5 0.22943,-1.5 -0.19039,0 -0.90637,0.675 -1.59106,1.5 -0.71755,0.864593 -0.81474,1.5 -0.22943,1.5 0.5585,0 1.27447,-0.675 1.59106,-1.5 z m 50.7158,-2.072016 c 6.25688,-0.613165 6.3785,-0.686351 5.13872,-3.092338 -1.41645,-2.748833 -0.40977,-4.422345 2.25752,-3.752899 1.26948,0.318619 2.60879,0.09284 2.97625,-0.50172 C 682.81738,87.486462 684.16138,87 685.43657,87 c 1.2752,0 2.87874,-0.675 3.56343,-1.5 0.68469,-0.825 2.06323,-1.5 3.06343,-1.5 1.00019,0 2.11561,-0.480678 2.4787,-1.068174 0.3631,-0.587495 1.25241,-0.840909 1.97626,-0.563142 1.6722,0.641681 2.66394,-1.786353 1.2906,-3.159697 -1.77311,-1.773106 -0.0926,-2.840106 4.13338,-2.624341 4.67347,0.238613 4.97585,-0.373392 1.70344,-3.447666 C 700.81528,70.477836 701.11065,66 704.11658,66 c 2.28055,0 2.48895,-1.553657 0.32004,-2.385948 -0.85986,-0.32996 -1.25446,-1.099782 -0.87688,-1.710716 0.89876,-1.454225 -4.28291,1.945775 -7.49862,4.920284 -1.39402,1.289457 -2.67132,1.845789 -2.86991,1.25 C 692.70874,66.626221 691,66.70324 691,68.172386 c 0,2.600917 -3.60237,8.777634 -5.13337,8.801816 C 684.96828,76.988391 683.99791,77.9 683.71025,79 c -0.37976,1.452216 -1.36401,2 -3.59358,2 -2.17179,0 -3.55004,0.73177 -4.70863,2.5 -0.90093,1.375 -2.50043,2.5 -3.55443,2.5 -1.05401,0 -2.1754,0.675 -2.49198,1.5 -0.75072,1.956323 -4.02137,1.930423 -5.1244,-0.04058 C 663.22067,85.642934 660,86.515189 660,88.606989 660,89.373145 659.34083,90 658.53518,90 c -0.80565,0 -1.93186,0.87269 -2.5027,1.939312 -1.23287,2.30363 0.28335,3.651885 3.62201,3.220785 1.18497,-0.153008 2.46034,0.216681 2.83416,0.821531 0.37381,0.60485 1.47991,0.845738 2.45799,0.535307 0.97808,-0.31043 4.18694,-0.800459 7.13079,-1.088951 z m 21.50552,-18.293769 c -0.43077,-0.697003 -0.51316,-1.537338 -0.18309,-1.867413 0.89497,-0.894961 1.87077,0.421303 1.38739,1.871444 -0.33872,1.016175 -0.57427,1.015386 -1.2043,-0.004 z M 627,93.940983 c 0,-0.582459 -0.45,-0.780902 -1,-0.440983 -0.55,0.339919 -1,0.816476 -1,1.059017 C 625,94.801558 625.45,95 626,95 c 0.55,0 1,-0.476558 1,-1.059017 z m 23.4433,-3.163489 C 651.29948,89.555115 652,87.250015 652,85.655049 652,83.190708 651.77469,82.942105 650.5,84 c -1.20473,0.999835 -1.5,0.984569 -1.5,-0.07756 0,-0.95638 -0.30245,-1.019992 -1.09264,-0.229804 -0.79019,0.790187 -0.75873,1.716568 0.11366,3.346639 1.00194,1.872133 0.93292,2.40699 -0.40736,3.157049 C 646.72615,90.693007 646,91.52702 646,92.04969 c 0,1.781669 2.88232,0.956409 4.4433,-1.272196 z M 888.5937,390.38358 c -1.45924,-3.80271 -0.54769,-6.14826 3.4063,-8.76488 3.09942,-2.0511 4,-2.30311 4,-1.11932 0,1.81262 -1.68518,4.96573 -4.6563,8.71228 -1.7362,2.18934 -2.27197,2.41766 -2.75,1.17192 z M 548,275.94377 c 0,-1.78428 8.83462,-5.08004 14.82507,-5.53051 5.51231,-0.41452 5.58872,-0.38631 2.66654,0.98428 -1.65461,0.77606 -3.86185,2.35409 -4.90498,3.50674 C 559.11179,276.53396 557.50141,277 553.34501,277 550.25864,277 548,276.55367 548,275.94377 z m 23.16327,-91.62314 c -0.85895,-3.21152 -0.92135,-4.96255 -0.20245,-5.68145 C 571.53237,178.06763 572,176.79 572,175.8 c 0,-0.99 0.49814,-1.8 1.10699,-1.8 0.64552,0 0.82476,0.72952 0.42997,1.75 -1.43003,3.69643 -1.69802,7.08054 -0.7073,8.93171 0.56693,1.05933 0.70329,2.45596 0.30301,3.10363 -0.4257,0.6888 -1.24313,-0.74928 -1.9694,-3.46471 z m 0.8309,-14.63573 c 0.55321,-1.5483 1.02178,-4.0233 1.04127,-5.5 L 573.07087,161.5 574.5,164 c 1.74379,3.05045 1.88426,5 0.36024,5 -0.62686,0 -1.75449,0.7875 -2.50583,1.75 -1.19898,1.53594 -1.24304,1.40566 -0.36024,-1.0651 z"
       id="path3192"
       inkscape:connector-curvature="0" />
  </g>
</svg>
