<?xml version="1.0" encoding="UTF-8" standalone="no"?>
<!-- Created with Inkscape (http://www.inkscape.org/) -->

<svg
   xmlns:dc="http://purl.org/dc/elements/1.1/"
   xmlns:cc="http://creativecommons.org/ns#"
   xmlns:rdf="http://www.w3.org/1999/02/22-rdf-syntax-ns#"
   xmlns:svg="http://www.w3.org/2000/svg"
   xmlns="http://www.w3.org/2000/svg"
   xmlns:sodipodi="http://sodipodi.sourceforge.net/DTD/sodipodi-0.dtd"
   xmlns:inkscape="http://www.inkscape.org/namespaces/inkscape"
   width="60mm"
   height="60mm"
   viewBox="0 0 60 60"
   version="1.1"
   id="svg8"
   sodipodi:docname="Logo.svg"
   inkscape:version="0.92.0 r15299">
  <defs
     id="defs2" />
  <sodipodi:namedview
     id="base"
     pagecolor="#ffffff"
     bordercolor="#666666"
     borderopacity="1.0"
     inkscape:pageopacity="0.0"
     inkscape:pageshadow="2"
     inkscape:zoom="3.6203867"
     inkscape:cx="77.992766"
     inkscape:cy="166.47011"
     inkscape:document-units="mm"
     inkscape:current-layer="layer1"
     showgrid="false"
     inkscape:lockguides="false"
     inkscape:window-width="2880"
     inkscape:window-height="1526"
     inkscape:window-x="-11"
     inkscape:window-y="-11"
     inkscape:window-maximized="1" />
  <metadata
     id="metadata5">
    <rdf:RDF>
      <cc:Work
         rdf:about="">
        <dc:format>image/svg+xml</dc:format>
        <dc:type
           rdf:resource="http://purl.org/dc/dcmitype/StillImage" />
      </cc:Work>
    </rdf:RDF>
  </metadata>
  <g
     inkscape:label="Layer 1"
     inkscape:groupmode="layer"
     id="layer1"
     transform="translate(-75,-118.5)">
    <path
       style="stroke-width:0.96348697"
       d="M 113.38672 0 A 113.38583 113.38583 0 0 0 0 113.38672 A 113.38583 113.38583 0 0 0 113.38672 226.77148 A 113.38583 113.38583 0 0 0 226.77148 113.38672 A 113.38583 113.38583 0 0 0 113.38672 0 z M 108.73242 9.6132812 L 108.73242 102.23242 L 108.73242 124.54102 L 108.73242 217.08984 A 103.93701 103.93701 0 0 1 9.4492188 113.38672 A 103.93701 103.93701 0 0 1 108.73242 9.6132812 z M 118.18164 9.6894531 A 103.93701 103.93701 0 0 1 183.28125 36.628906 L 171.99609 47.912109 L 171.99609 47.914062 L 118.18164 101.72852 L 118.18164 9.6894531 z M 189.98047 43.292969 A 103.93701 103.93701 0 0 1 217.32227 113.38672 A 103.93701 103.93701 0 0 1 189.96875 183.46875 L 178.67773 172.17773 L 119.88672 113.38672 L 178.67773 54.59375 L 189.98047 43.292969 z M 118.18164 125.04492 L 171.99609 178.85938 L 183.28711 190.15039 A 103.93701 103.93701 0 0 1 118.18164 217.15234 L 118.18164 125.04492 z "
       transform="matrix(0.26458333,0,0,0.26458333,75,118.5)"
       id="path3684" />
    <rect
       style="fill:#000000;stroke-width:0.26458332"
       id="rect3897"
       width="2.8096159"
       height="0.29168278"
       x="106.26889"
       y="151.29312" />
    <path
       style="fill:#ff00ff;stroke-width:0.64386952"
       d="m 55.150978,107.24545 v 0.046 a 30,30 0 0 0 -19.087724,7.88737 l -0.0047,-0.005 -0.05736,0.0574 a 30,30 0 0 0 -0.826306,0.77515 30,30 0 0 0 -0.482141,0.53382 l -0.401526,0.40152 0.02015,0.0202 a 30,30 0 0 0 -0.239262,0.28887 30,30 0 0 0 -0.315226,0.38034 30,30 0 0 0 -1.530139,1.896 30,30 0 0 0 -0.574126,0.8537 30,30 0 0 0 -1.04128,1.59215 30,30 0 0 0 -0.72347,1.35031 30,30 0 0 0 -0.648022,1.24746 30,30 0 0 0 -0.778764,1.88516 30,30 0 0 0 -0.362769,0.91054 30,30 0 0 0 -0.147794,0.43046 30,30 0 0 0 -0.0956,0.27337 30,30 0 0 0 -0.303857,1.11983 30,30 0 0 0 -0.429431,1.62574 30,30 0 0 0 -0.06098,0.25528 30,30 0 0 0 -0.17415,1.04283 30,30 0 0 0 -0.274402,1.79007 30,30 0 0 0 -0.03256,0.23927 30,30 0 0 0 -0.06253,0.96118 30,30 0 0 0 -0.116272,2.14095 30,30 0 0 0 0.05839,1.14929 30,30 0 0 0 0.0078,0.22427 30,30 0 0 0 0.01602,0.24392 30,30 0 0 0 0.184485,2.13475 30,30 0 0 0 0.04754,0.35088 30,30 0 0 0 0.06253,0.37569 30,30 0 0 0 0.33383,1.90789 30,30 0 0 0 0.09922,0.41445 30,30 0 0 0 0.123507,0.45527 30,30 0 0 0 0.509013,1.8743 30,30 0 0 0 0.01137,0.0419 30,30 0 0 0 0.100252,0.28732 30,30 0 0 0 0.151929,0.39171 30,30 0 0 0 0.876432,2.25774 30,30 0 0 0 0.347782,0.7183 30,30 0 0 0 0.972551,1.91307 30,30 0 0 0 0.558105,0.90898 30,30 0 0 0 1.014925,1.58285 30,30 0 0 0 0.803569,1.05575 30,30 0 0 0 1.003556,1.26607 30,30 0 0 0 0.627869,0.72864 l -0.02015,0.0202 0.399976,0.40049 a 30,30 0 0 0 0.483691,0.53485 30,30 0 0 0 0.829407,0.77825 l 0.05426,0.0543 0.0041,-0.004 a 30,30 0 0 0 1.502234,1.24902 30,30 0 0 0 0.280086,0.23358 30,30 0 0 0 2.104781,1.50223 30,30 0 0 0 0.355534,0.2403 30,30 0 0 0 2.153357,1.23403 30,30 0 0 0 0.483691,0.25993 30,30 0 0 0 2.158008,0.96429 30,30 0 0 0 0.6134,0.25476 30,30 0 0 0 2.144055,0.71107 30,30 0 0 0 0.731738,0.22117 30,30 0 0 0 2.089278,0.46768 30,30 0 0 0 0.876432,0.17208 30,30 0 0 0 1.985924,0.23978 30,30 0 0 0 1.284161,0.12092 30,30 0 0 0 0.325562,0.0217 v 0.0403 h 1.250053 1.249537 v -0.0558 a 30,30 0 0 0 19.02261,-7.86567 l 0.04444,0.0444 0.883666,-0.88418 0.883669,-0.88367 -1.812293,-1.81229 -0.0052,-0.005 a 27.5,27.5 0 0 0 7.23315,-18.53737 27.5,27.5 0 0 0 -7.249171,-18.52186 l 0.02119,-0.0212 1.812293,-1.81229 -0.883669,-0.88367 -0.883666,-0.88418 -0.04444,0.0444 a 30,30 0 0 0 -18.999356,-7.89306 30,30 0 0 0 -0.02325,0 v -0.0284 h -1.249537 z"
       id="path3880"
       inkscape:connector-curvature="0" />
  </g>
</svg>
