<?xml version="1.0" encoding="UTF-8" standalone="no"?>
<!-- Created with Inkscape (http://www.inkscape.org/) -->

<svg
   xmlns:dc="http://purl.org/dc/elements/1.1/"
   xmlns:cc="http://creativecommons.org/ns#"
   xmlns:rdf="http://www.w3.org/1999/02/22-rdf-syntax-ns#"
   xmlns:svg="http://www.w3.org/2000/svg"
   xmlns="http://www.w3.org/2000/svg"
   xmlns:sodipodi="http://sodipodi.sourceforge.net/DTD/sodipodi-0.dtd"
   xmlns:inkscape="http://www.inkscape.org/namespaces/inkscape"
   width="60mm"
   height="60mm"
   viewBox="0 0 60 60"
   version="1.1"
   id="svg8"
   sodipodi:docname="Logo2.svg"
   inkscape:version="0.92.0 r15299"
   inkscape:export-filename="C:\Users\chiyo\bitmap.png"
   inkscape:export-xdpi="96"
   inkscape:export-ydpi="96">
  <defs
     id="defs2" />
  <sodipodi:namedview
     id="base"
     pagecolor="#ffffff"
     bordercolor="#666666"
     borderopacity="1.0"
     inkscape:pageopacity="0.0"
     inkscape:pageshadow="2"
     inkscape:zoom="3.6203867"
     inkscape:cx="77.992766"
     inkscape:cy="166.47011"
     inkscape:document-units="mm"
     inkscape:current-layer="layer1"
     showgrid="false"
     inkscape:lockguides="false"
     inkscape:window-width="2880"
     inkscape:window-height="1526"
     inkscape:window-x="-11"
     inkscape:window-y="-11"
     inkscape:window-maximized="1"
     showguides="true" />
  <metadata
     id="metadata5">
    <rdf:RDF>
      <cc:Work
         rdf:about="">
        <dc:format>image/svg+xml</dc:format>
        <dc:type
           rdf:resource="http://purl.org/dc/dcmitype/StillImage" />
      </cc:Work>
    </rdf:RDF>
  </metadata>
  <g
     inkscape:label="Layer 1"
     inkscape:groupmode="layer"
     id="layer1"
     transform="translate(-75,-118.5)">
    <path
       style="fill:#ffeeaa;stroke-width:0.26458332"
       d="M 101.91513,145.98102 87.676723,131.74261 h -5.17e-4 l -2.985347,-2.98586 a 27.5,27.5 0 0 0 -1.60662,1.93735 27.5,27.5 0 0 0 -1.544092,2.27376 27.5,27.5 0 0 0 -1.309998,2.4169 27.5,27.5 0 0 0 -1.061434,2.53525 27.5,27.5 0 0 0 -0.803568,2.6293 27.5,27.5 0 0 0 -0.536918,2.69544 27.5,27.5 0 0 0 -0.2651,2.73627 z"
       id="path4019"
       inkscape:connector-curvature="0" />
    <path
       style="fill:#ffeeaa;stroke-width:0.99999994"
       d="M 217.15234 103.86523 A 103.93701 103.93701 0 0 0 216.26367 94.363281 A 103.93701 103.93701 0 0 0 214.3125 84.160156 A 103.93701 103.93701 0 0 0 211.34961 74.201172 A 103.93701 103.93701 0 0 0 207.41016 64.587891 A 103.93701 103.93701 0 0 0 202.52734 55.416016 A 103.93701 103.93701 0 0 0 196.75586 46.779297 A 103.93701 103.93701 0 0 0 190.15039 38.759766 L 178.85938 50.050781 L 125.04492 103.86523 L 217.15234 103.86523 z "
       id="path4017"
       transform="matrix(0.26458333,0,0,0.26458333,75,118.5)" />
    <path
       style="fill:#ff00ff;stroke-width:0.99999994"
       d="M 217.15234 63.546875 A 113.38583 113.38583 0 0 0 215.94922 60.634766 A 113.38583 113.38583 0 0 0 215.45898 59.619141 A 113.38583 113.38583 0 0 0 210.66016 50.664062 A 113.38583 113.38583 0 0 0 210.01562 49.611328 A 113.38583 113.38583 0 0 0 204.41602 41.285156 A 113.38583 113.38583 0 0 0 203.57617 40.177734 A 113.38583 113.38583 0 0 0 197.30078 32.603516 A 113.38583 113.38583 0 0 0 190.15039 25.361328 L 183.46875 32.042969 L 183.44922 32.0625 A 103.93701 103.93701 0 0 1 183.46875 32.078125 L 172.17773 43.369141 L 113.38672 102.16016 L 54.59375 43.369141 L 43.292969 32.066406 A 103.93701 103.93701 0 0 1 43.310547 32.050781 L 43.302734 32.042969 L 36.642578 25.382812 A 113.38583 113.38583 0 0 0 29.560547 32.498047 A 113.38583 113.38583 0 0 0 22.935547 40.462891 A 113.38583 113.38583 0 0 0 22.126953 41.59375 A 113.38583 113.38583 0 0 0 16.654297 49.699219 A 113.38583 113.38583 0 0 0 15.660156 51.435547 A 113.38583 113.38583 0 0 0 11.322266 59.492188 A 113.38583 113.38583 0 0 0 10.232422 61.931641 A 113.38583 113.38583 0 0 0 8.0097656 67.283203 L 8.0097656 103.86523 L 9.6894531 103.86523 A 103.93701 103.93701 0 0 1 10.691406 93.523438 A 103.93701 103.93701 0 0 1 12.720703 83.335938 A 103.93701 103.93701 0 0 1 15.757812 73.398438 A 103.93701 103.93701 0 0 1 19.769531 63.816406 A 103.93701 103.93701 0 0 1 24.720703 54.681641 A 103.93701 103.93701 0 0 1 30.556641 46.087891 A 103.93701 103.93701 0 0 1 36.628906 38.765625 L 47.912109 50.050781 L 47.914062 50.050781 L 101.72852 103.86523 L 125.04492 103.86523 L 178.85938 50.050781 L 190.15039 38.759766 A 103.93701 103.93701 0 0 1 196.75586 46.779297 A 103.93701 103.93701 0 0 1 202.52734 55.416016 A 103.93701 103.93701 0 0 1 207.41016 64.587891 A 103.93701 103.93701 0 0 1 211.34961 74.201172 A 103.93701 103.93701 0 0 1 214.3125 84.160156 A 103.93701 103.93701 0 0 1 216.26367 94.363281 A 103.93701 103.93701 0 0 1 217.15234 103.86523 L 217.15234 63.546875 z "
       id="path4015"
       transform="matrix(0.26458333,0,0,0.26458333,75,118.5)" />
    <path
       style="stroke-width:0.2549226"
       d="m 74.999981,147.24968 a 30.000001,30.000001 0 0 0 0.08268,1.65726 30.000001,30.000001 0 0 0 0.203088,2.23707 30.000001,30.000001 0 0 0 0.126608,0.83716 30.000001,30.000001 0 0 0 0.394807,2.04897 30.000001,30.000001 0 0 0 0.250114,0.97824 30.000001,30.000001 0 0 0 0.546737,1.83089 30.000001,30.000001 0 0 0 0.411344,1.12603 30.000001,30.000001 0 0 0 0.657842,1.59784 30.000001,30.000001 0 0 0 0.596862,1.23506 30.000001,30.000001 0 0 0 0.731222,1.36994 30.000001,30.000001 0 0 0 0.808736,1.3193 30.000001,30.000001 0 0 0 0.769462,1.14825 30.000001,30.000001 0 0 0 1.036112,1.36323 30.000001,30.000001 0 0 0 0.77618,0.93948 30.000001,30.000001 0 0 0 2.846338,2.8329 30.000001,30.000001 0 0 0 0.147795,0.12247 30.000001,30.000001 0 0 0 1.797306,1.45056 30.000001,30.000001 0 0 0 0.310575,0.22221 30.000001,30.000001 0 0 0 0.641822,0.4315 30.000001,30.000001 0 0 0 1.495516,0.97822 30.000001,30.000001 0 0 0 0.30179,0.17313 30.000001,30.000001 0 0 0 1.14515,0.6134 30.000001,30.000001 0 0 0 1.150834,0.59789 30.000001,30.000001 0 0 0 0.30024,0.13436 30.000001,30.000001 0 0 0 1.681551,0.69453 30.000001,30.000001 0 0 0 0.730705,0.29146 30.000001,30.000001 0 0 0 1.23455,0.40978 30.000001,30.000001 0 0 0 0.768945,0.20877 30.000001,30.000001 0 0 0 1.263489,0.33383 30.000001,30.000001 0 0 0 0.931207,0.20878 30.000001,30.000001 0 0 0 0.72916,0.12195 30.000001,30.000001 0 0 0 1.422142,0.21808 30.000001,30.000001 0 0 0 0.87591,0.10645 30.000001,30.000001 0 0 0 0.69247,0.045 30.000001,30.000001 0 0 0 2.14095,0.11627 30.000001,30.000001 0 0 0 1.14929,-0.0584 30.000001,30.000001 0 0 0 0.0574,-0.002 30.000001,30.000001 0 0 0 0.33176,-0.0165 30.000001,30.000001 0 0 0 0.0791,-0.005 30.000001,30.000001 0 0 0 2.13475,-0.18449 30.000001,30.000001 0 0 0 0.15193,-0.0207 30.000001,30.000001 0 0 0 0.40204,-0.0605 30.000001,30.000001 0 0 0 0.1726,-0.0289 30.000001,30.000001 0 0 0 1.90789,-0.33383 30.000001,30.000001 0 0 0 0.22841,-0.0548 30.000001,30.000001 0 0 0 0.37311,-0.0951 30.000001,30.000001 0 0 0 0.2682,-0.0729 30.000001,30.000001 0 0 0 1.8743,-0.50901 30.000001,30.000001 0 0 0 0.0419,-0.0114 30.000001,30.000001 0 0 0 0.10077,-0.0351 30.000001,30.000001 0 0 0 0.31884,-0.11627 30.000001,30.000001 0 0 0 0.25942,-0.10077 30.000001,30.000001 0 0 0 2.25774,-0.87643 30.000001,30.000001 0 0 0 0.7183,-0.34778 30.000001,30.000001 0 0 0 1.91307,-0.97255 30.000001,30.000001 0 0 0 0.90899,-0.55811 30.000001,30.000001 0 0 0 1.58284,-1.01492 30.000001,30.000001 0 0 0 1.05575,-0.80357 30.000001,30.000001 0 0 0 1.26608,-1.00356 30.000001,30.000001 0 0 0 0.2222,-0.19172 30.000001,30.000001 0 0 0 3.20188,-3.28403 30.000001,30.000001 0 0 0 0.33744,-0.40566 30.000001,30.000001 0 0 0 0.23358,-0.28009 30.000001,30.000001 0 0 0 1.50223,-2.10478 30.000001,30.000001 0 0 0 0.2403,-0.35554 30.000001,30.000001 0 0 0 1.23403,-2.15335 30.000001,30.000001 0 0 0 0.25994,-0.48369 30.000001,30.000001 0 0 0 0.96428,-2.15801 30.000001,30.000001 0 0 0 0.25476,-0.6134 30.000001,30.000001 0 0 0 0.71107,-2.14406 30.000001,30.000001 0 0 0 0.22118,-0.73173 30.000001,30.000001 0 0 0 0.46767,-2.08928 30.000001,30.000001 0 0 0 0.17208,-0.87644 30.000001,30.000001 0 0 0 0.23978,-1.98592 30.000001,30.000001 0 0 0 0.12092,-1.28416 30.000001,30.000001 0 0 0 0.0134,-0.20309 30.000001,30.000001 0 0 0 0.0486,-1.37252 30.000001,30.000001 0 0 0 -0.0703,-1.40922 30.000001,30.000001 0 0 0 -0.25011,-2.71508 30.000001,30.000001 0 0 0 -0.0398,-0.26303 30.000001,30.000001 0 0 0 -0.52193,-2.68459 30.000001,30.000001 0 0 0 -0.0646,-0.2527 30.000001,30.000001 0 0 0 -0.78652,-2.61845 30.000001,30.000001 0 0 0 -0.0925,-0.2527 30.000001,30.000001 0 0 0 -1.03766,-2.51095 30.000001,30.000001 0 0 0 -0.12971,-0.26872 30.000001,30.000001 0 0 0 -1.26968,-2.36936 30.000001,30.000001 0 0 0 -0.17054,-0.27854 30.000001,30.000001 0 0 0 -1.48156,-2.20297 30.000001,30.000001 0 0 0 -0.22221,-0.293 30.000001,30.000001 0 0 0 -1.66036,-2.00401 30.000001,30.000001 0 0 0 -1.89188,-1.91617 l -1.76785,1.76785 -0.005,0.005 a 27.500001,27.500001 0 0 1 0.005,0.004 l -2.9874,2.98753 -15.55513,15.55512 -15.555646,-15.55512 -2.989998,-2.99051 a 27.500001,27.500001 0 0 1 0.0046,-0.004 l -0.0021,-0.002 -1.762165,-1.76216 a 30.000001,30.000001 0 0 0 -1.873787,1.88257 30.000001,30.000001 0 0 0 -1.752865,2.10737 30.000001,30.000001 0 0 0 -0.21394,0.2992 30.000001,30.000001 0 0 0 -1.447974,2.14457 30.000001,30.000001 0 0 0 -0.263033,0.45941 30.000001,30.000001 0 0 0 -1.147734,2.13165 30.000001,30.000001 0 0 0 -0.288354,0.64544 30.000001,30.000001 0 0 0 -0.85939,2.06913 30.000001,30.000001 0 0 0 -0.28112,0.84595 30.000001,30.000001 0 0 0 -0.595312,1.96783 30.000001,30.000001 0 0 0 -0.236679,1.05369 30.000001,30.000001 0 0 0 -0.359151,1.82831 30.000001,30.000001 0 0 0 -0.153479,1.26659 30.000001,30.000001 0 0 0 -0.16743,1.77754 30.000001,30.000001 0 0 0 -0.05478,1.55443 z m 2.543514,1.23145 h 24.505485 5.90249 24.48687 a 27.500001,27.500001 0 0 1 -27.43812,26.26868 27.500001,27.500001 0 0 1 -27.456725,-26.26868 z m 0.02015,-2.50011 a 27.500001,27.500001 0 0 1 7.127731,-17.22427 l 2.985347,2.98586 h 5.29e-4 l 14.238408,14.23841 z m 9.565825,-19.55643 a 27.500001,27.500001 0 0 1 0.319877,-0.2651 27.500001,27.500001 0 0 0 -0.319877,0.2651 z m 2.222603,-1.72082 a 27.500001,27.500001 0 0 1 0.358634,-0.24133 27.500001,27.500001 0 0 0 -0.358634,0.24133 z m 2.282548,-1.42886 a 27.500001,27.500001 0 0 1 0.506946,-0.27182 27.500001,27.500001 0 0 0 -0.506946,0.27182 z m 2.401404,-1.19424 a 27.500001,27.500001 0 0 1 0.687296,-0.28422 27.500001,27.500001 0 0 0 -0.687296,0.28422 z m 2.506823,-0.95498 a 27.500001,27.500001 0 0 1 0.865064,-0.26045 27.500001,27.500001 0 0 0 -0.865064,0.26045 z m 2.59416,-0.70693 a 27.500001,27.500001 0 0 1 1.037152,-0.20206 27.500001,27.500001 0 0 0 -1.037152,0.20206 z m 2.642222,-0.44959 a 27.500001,27.500001 0 0 1 1.21595,-0.11265 27.500001,27.500001 0 0 0 -1.21595,0.11265 z m 3.22099,-0.21911 a 27.500001,27.500001 0 0 1 1.92444,0.0997 27.500001,27.500001 0 0 0 -1.92444,-0.0997 z m 3.08457,26.23096 14.23841,-14.23841 2.98741,-2.98741 a 27.500001,27.500001 0 0 1 7.14427,17.22582 z m 0.21239,-26.00462 a 27.500001,27.500001 0 0 1 1.35496,0.20774 27.500001,27.500001 0 0 0 -1.35496,-0.20774 z m 2.70164,0.46974 a 27.500001,27.500001 0 0 1 1.33274,0.34262 27.500001,27.500001 0 0 0 -1.33274,-0.34262 z m 2.64842,0.73846 a 27.500001,27.500001 0 0 1 1.28313,0.47129 27.500001,27.500001 0 0 0 -1.28313,-0.47129 z m 2.56315,1.00046 a 27.500001,27.500001 0 0 1 1.22887,0.59686 27.500001,27.500001 0 0 0 -1.22887,-0.59686 z m 2.43861,1.2454 a 27.500001,27.500001 0 0 1 1.17047,0.72037 27.500001,27.500001 0 0 0 -1.17047,-0.72037 z m 2.31717,1.4919 a 27.500001,27.500001 0 0 1 1.07643,0.82114 27.500001,27.500001 0 0 0 -1.07643,-0.82114 z"
       id="path3684-3"
       inkscape:connector-curvature="0" />
    <path
       style="fill:#ffd42a;stroke-width:0.99999994"
       d="M 9.6132812 113.31445 A 103.93701 103.93701 0 0 0 9.765625 115.95312 A 103.93701 103.93701 0 0 0 11.011719 126.26758 A 103.93701 103.93701 0 0 0 13.28125 136.40625 A 103.93701 103.93701 0 0 0 16.550781 146.26758 A 103.93701 103.93701 0 0 0 20.789062 155.75391 A 103.93701 103.93701 0 0 0 25.953125 164.76758 A 103.93701 103.93701 0 0 0 31.992188 173.22266 A 103.93701 103.93701 0 0 0 38.845703 181.03125 A 103.93701 103.93701 0 0 0 46.443359 188.11719 A 103.93701 103.93701 0 0 0 54.708984 194.41016 A 103.93701 103.93701 0 0 0 63.564453 199.8457 A 103.93701 103.93701 0 0 0 72.916016 204.36914 A 103.93701 103.93701 0 0 0 82.673828 207.9375 A 103.93701 103.93701 0 0 0 92.738281 210.51367 A 103.93701 103.93701 0 0 0 103.00977 212.07227 A 103.93701 103.93701 0 0 0 113.38672 212.59766 A 103.93701 103.93701 0 0 0 115.95898 212.5625 A 103.93701 103.93701 0 0 0 126.31836 211.77344 A 103.93701 103.93701 0 0 0 136.54883 209.95508 A 103.93701 103.93701 0 0 0 146.54492 207.12305 A 103.93701 103.93701 0 0 0 156.20703 203.30859 A 103.93701 103.93701 0 0 0 165.44141 198.54688 A 103.93701 103.93701 0 0 0 174.1543 192.88867 A 103.93701 103.93701 0 0 0 182.25977 186.38867 A 103.93701 103.93701 0 0 0 189.67383 179.11133 A 103.93701 103.93701 0 0 0 196.32617 171.13086 A 103.93701 103.93701 0 0 0 202.14844 162.52539 A 103.93701 103.93701 0 0 0 207.08008 153.38086 A 103.93701 103.93701 0 0 0 211.07617 143.79102 A 103.93701 103.93701 0 0 0 214.0957 133.84961 A 103.93701 103.93701 0 0 0 216.10547 123.6582 A 103.93701 103.93701 0 0 0 217.08984 113.31445 L 9.6132812 113.31445 z "
       id="path4032"
       transform="matrix(0.26458333,0,0,0.26458333,75,118.5)" />
  </g>
</svg>
